{
.appVersion = "1230";
DisplayStrings = (
"/ti sali ",
"/da",
"/da",
"/bo",
"/da",
lifefo,
"/fo",
"/fo",
"bama/be defesalika",
"/da",
"/da",
"/fe",
"/bo",
"nnn/be nnn",
"/bo",
"/fe"
);
customParameters = (
{
name = vendorID;
value = ADBO;
},
{
name = panose;
value = (
2,
11,
3,
3,
3,
4,
3,
2,
2,
4
);
},
{
name = unicodeRanges;
value = (
0,
1,
2,
4,
5,
6,
7,
9,
29,
30,
32,
33
);
},
{
name = codePageRanges;
value = (
1252,
1250,
1251,
1253,
1254,
1257,
1258,
bit 29
);
},
{
name = glyphOrder;
value = (
.notdef,
nbspace,
A,
B,
C,
D,
E,
F,
G,
H,
I,
J,
K,
L,
M,
N,
O,
P,
Q,
R,
S,
T,
U,
V,
W,
X,
Y,
Z,
a,
b,
c,
d,
e,
f,
g,
h,
i,
j,
k,
l,
m,
n,
o,
p,
q,
r,
s,
t,
u,
v,
w,
x,
y,
z,
Agrave,
Aacute,
Acircumflex,
Atilde,
Adieresis,
Amacron,
Abreve,
Aring,
Acaron,
Adotbelow,
Ahookabove,
Acircumflexacute,
Acircumflexgrave,
Acircumflexhookabove,
Acircumflextilde,
Acircumflexdotbelow,
Abreveacute,
Abrevegrave,
Abrevehookabove,
Abrevetilde,
Abrevedotbelow,
Aogonek,
Aogonek.ss18,
A_acutecomb_ogonekcomb,
AE,
AEacute,
AEmacron,
Bstroke,
Bdotaccent,
Blinebelow,
Ccedilla,
Cacute,
Ccircumflex,
Ccaron,
Cdotaccent,
Dcaron,
Ddotaccent,
Ddotbelow,
Dlinebelow,
Dcroat,
Egrave,
Eacute,
Ecircumflex,
Ecaron,
Edieresis,
Emacron,
Ebreve,
Edotaccent,
Edotbelow,
Ehookabove,
Etilde,
Ecircumflexacute,
Ecircumflexgrave,
Ecircumflexhookabove,
Ecircumflextilde,
Ecircumflexdotbelow,
Eogonek,
Eogonek.ss18,
E_acutecomb_ogonekcomb,
Emacronacute,
Fdotaccent,
Gacute,
Gcircumflex,
Gbreve,
Gdotaccent,
Gcommaaccent,
Gcaron,
Gmacron,
G_tildecomb,
Ghook,
Hcircumflex,
Hdotbelow,
Hbrevebelow,
hlinebelow.case,
Hbar,
Igrave,
Iacute,
Icircumflex,
Itilde,
Idieresis,
Imacron,
Idotaccent,
Icaron,
Ihookabove,
Idotbelow,
Iogonek,
I_acutecomb_ogonekcomb,
Ibreve,
Jcircumflex,
Kcommaaccent,
Kdotbelow,
Klinebelow,
Lacute,
Lcaron,
Lcommaaccent,
Ldot,
Ldotbelow,
Ldotbelowmacron,
Llinebelow,
Lslash,
Macute,
Mdotaccent,
Mdotbelow,
Nacute,
Ngrave,
Ncaron,
Ntilde,
Ncommaaccent,
Ndotaccent,
Ndotbelow,
Nlinebelow,
Ograve,
Oacute,

glyphs = (
{
glyphname = A;
layers = (
{
layerId = "8AD06237-24D7-4ED2-B5ED-9E3907A842BF";
paths = (
{
closed = 1;
nodes = (
"77 0 LINE",
"198 373 LINE SMOOTH",
"217 430 OFFCURVE",
"250 539 OFFCURVE",
"266 597 QCURVE",
"270 597 LINE",
"286 539 OFFCURVE",
"320 430 OFFCURVE",
"338 373 QCURVE SMOOTH",
"458 0 LINE",
"534 0 LINE",
"308 657 LINE",
"230 657 LINE",
"4 0 LINE"
);
},
{
closed = 1;
nodes = (
"418 208 LINE",
"418 266 LINE",
"118 266 LINE",
"118 208 LINE"
);
}
);
width = 538;
}
);
leftKerningGroup = A;
note = uni0041;
rightKerningGroup = A;
unicode = 0041;
},
{
glyphname = B;
layers = (
{
layerId = "8AD06237-24D7-4ED2-B5ED-9E3907A842BF";
paths = (
{
closed = 1;
nodes = (
"296 0 LINE SMOOTH",
"369 0 OFFCURVE",
"481 42 OFFCURVE",
"543 128 OFFCURVE",
"543 192 QCURVE SMOOTH",
"543 260 OFFCURVE",
"467 339 OFFCURVE",
"407 350 QCURVE",
"407 354 LINE",
"454 369 OFFCURVE",
"505 447 OFFCURVE",
"505 497 QCURVE SMOOTH",
"505 553 OFFCURVE",
"449 624 OFFCURVE",
"348 657 OFFCURVE",
"282 657 QCURVE SMOOTH",
"92 657 LINE",
"92 0 LINE"
);
},
{
closed = 1;
nodes = (
"164 600 LINE",
"270 600 LINE SMOOTH",
"351 600 OFFCURVE",
"434 549 OFFCURVE",
"434 488 QCURVE SMOOTH",
"434 436 OFFCURVE",
"355 374 OFFCURVE",
"266 374 QCURVE SMOOTH",
"164 374 LINE"
);
},
{
closed = 1;
nodes = (
"164 319 LINE",
"284 319 LINE SMOOTH",
"375 319 OFFCURVE",
"473 258 OFFCURVE",
"473 194 QCURVE SMOOTH",
"473 123 OFFCURVE",
"373 57 OFFCURVE",
"284 57 QCURVE SMOOTH",
"164 57 LINE"
);
}
);
width = 585;
}
);
note = uni0042;
rightKerningGroup = B;
unicode = 0042;
},
{
glyphname = C;
layers = (
{
layerId = "8AD06237-24D7-4ED2-B5ED-9E3907A842BF";
paths = (
{
closed = 1;
nodes = (
"400 -12 OFFCURVE",
"497 38 OFFCURVE",
"535 83 QCURVE",
"495 127 LINE",
"463 91 OFFCURVE",
"387 51 OFFCURVE",
"338 51 QCURVE SMOOTH",
"273 51 OFFCURVE",
"178 120 OFFCURVE",
"127 245 OFFCURVE",
"127 330 QCURVE SMOOTH",
"127 415 OFFCURVE",
"180 539 OFFCURVE",
"277 606 OFFCURVE",
"342 606 QCURVE SMOOTH",
"385 606 OFFCURVE",
"452 571 OFFCURVE",
"479 542 QCURVE",
"518 589 LINE",
"491 620 OFFCURVE",
"400 669 OFFCURVE",
"341 669 QCURVE SMOOTH",
"278 669 OFFCURVE",
"173 623 OFFCURVE",
"95 533 OFFCURVE",
"53 408 OFFCURVE",
"53 329 QCURVE SMOOTH",
"53 223 OFFCURVE",
"126 70 OFFCURVE",
"254 -12 OFFCURVE",
"335 -12 QCURVE SMOOTH"
);
}
);
width = 569;
}
);
leftKerningGroup = C;
note = uni0043;
rightKerningGroup = C;
unicode = 0043;
},
{
glyphname = D;
layers = (
{
layerId = "8AD06237-24D7-4ED2-B5ED-9E3907A842BF";
paths = (
{
closed = 1;
nodes = (
"255 0 LINE SMOOTH",
"355 0 OFFCURVE",
"490 79 OFFCURVE",
"559 228 OFFCURVE",
"559 331 QCURVE SMOOTH",
"559 434 OFFCURVE",
"490 580 OFFCURVE",
"354 657 OFFCURVE",
"253 657 QCURVE SMOOTH",
"92 657 LINE",
"92 0 LINE"
);
},
{
closed = 1;
nodes = (
"164 598 LINE",
"247 598 LINE SMOOTH",
"328 598 OFFCURVE",
"433 535 OFFCURVE",
"485 415 OFFCURVE",
"485 331 QCURVE SMOOTH",
"485 247 OFFCURVE",
"433 125 OFFCURVE",
"328 59 OFFCURVE",
"247 59 QCURVE SMOOTH",
"164 59 LINE"
);
}
);
width = 612;
}
);
note = uni0044;
rightKerningGroup = D;
unicode = 0044;
},
{
glyphname = E;
layers = (
{
layerId = "8AD06237-24D7-4ED2-B5ED-9E3907A842BF";
paths = (
{
closed = 1;
nodes = (
"475 0 LINE",
"475 61 LINE",
"164 61 LINE",
"164 316 LINE",
"417 316 LINE",
"417 377 LINE",
"164 377 LINE",
"164 596 LINE",
"465 596 LINE",
"465 657 LINE",
"92 657 LINE",
"92 0 LINE"
);
}
);
width = 523;
}
);
note = uni0045;
rightKerningGroup = E;
unicode = 0045;
},
{
glyphname = F;
layers = (
{
layerId = "8AD06237-24D7-4ED2-B5ED-9E3907A842BF";
paths = (
{
closed = 1;
nodes = (
"164 0 LINE",
"164 301 LINE",
"418 301 LINE",
"418 362 LINE",
"164 362 LINE",
"164 596 LINE",
"464 596 LINE",
"464 657 LINE",
"92 657 LINE",
"92 0 LINE"
);
}
);
width = 489;
}
);
note = uni0046;
rightKerningGroup = F;
unicode = 0046;
},
{
glyphname = G;
layers = (
{
layerId = "8AD06237-24D7-4ED2-B5ED-9E3907A842BF";
paths = (
{
closed = 1;
nodes = (
"411 -12 OFFCURVE",
"513 31 OFFCURVE",
"545 64 QCURVE",
"545 335 LINE",
"334 335 LINE",
"334 275 LINE",
"479 275 LINE",
"479 93 LINE",
"458 74 OFFCURVE",
"390 51 OFFCURVE",
"351 51 QCURVE SMOOTH",
"280 51 OFFCURVE",
"179 120 OFFCURVE",
"127 245 OFFCURVE",
"127 330 QCURVE SMOOTH",
"127 415 OFFCURVE",
"182 539 OFFCURVE",
"283 606 OFFCURVE",
"352 606 QCURVE SMOOTH",
"404 606 OFFCURVE",
"472 569 OFFCURVE",
"497 542 QCURVE",
"537 589 LINE",
"509 618 OFFCURVE",
"418 669 OFFCURVE",
"351 669 QCURVE SMOOTH",
"286 669 OFFCURVE",
"177 623 OFFCURVE",
"97 533 OFFCURVE",
"53 408 OFFCURVE",
"53 329 QCURVE SMOOTH",
"53 223 OFFCURVE",
"127 70 OFFCURVE",
"259 -12 OFFCURVE",
"345 -12 QCURVE SMOOTH"
);
}
);
width = 613;
}
);
leftKerningGroup = C;
note = uni0047;
rightKerningGroup = G;
unicode = 0047;
},
{
glyphname = H;
lastChange = "2019-05-01 14:51:27 +0000";
layers = (
{
layerId = "8AD06237-24D7-4ED2-B5ED-9E3907A842BF";
paths = (
{
closed = 1;
nodes = (
"164 0 LINE",
"164 315 LINE",
"484 315 LINE",
"484 0 LINE",
"555 0 LINE",
"555 657 LINE",
"484 657 LINE",
"484 378 LINE",
"164 378 LINE",
"164 657 LINE",
"92 657 LINE",
"92 0 LINE"
);
}
);
width = 648;
}
);
note = uni0048;
rightKerningGroup = H;
unicode = 0048;
},
{
glyphname = I;
layers = (
{
layerId = "8AD06237-24D7-4ED2-B5ED-9E3907A842BF";
paths = (
{
closed = 1;
nodes = (
"164 0 LINE",
"164 657 LINE",
"92 657 LINE",
"92 0 LINE"
);
}
);
width = 256;
}
);
note = uni0049;
rightKerningGroup = I;
unicode = 0049;
},
{
glyphname = J;
layers = (
{
layerId = "8AD06237-24D7-4ED2-B5ED-9E3907A842BF";
paths = (
{
closed = 1;
nodes = (
"272 -12 OFFCURVE",
"349 42 OFFCURVE",
"385 133 OFFCURVE",
"385 189 QCURVE SMOOTH",
"385 657 LINE",
"313 657 LINE",
"313 195 LINE SMOOTH",
"313 119 OFFCURVE",
"259 51 OFFCURVE",
"204 51 QCURVE SMOOTH",
"167 51 OFFCURVE",
"109 87 OFFCURVE",
"86 126 QCURVE",
"34 90 LINE",
"62 40 OFFCURVE",
"149 -12 OFFCURVE",
"209 -12 QCURVE SMOOTH"
);
}
);
width = 474;
}
);
leftKerningGroup = J;
note = uni004A;
rightKerningGroup = J;
unicode = 004A;
},
{
glyphname = K;
layers = (
{
layerId = "8AD06237-24D7-4ED2-B5ED-9E3907A842BF";
paths = (
{
closed = 1;
nodes = (
"164 0 LINE",
"164 214 LINE",
"283 353 LINE",
"486 0 LINE",
"566 0 LINE",
"328 409 LINE",
"535 657 LINE",
"454 657 LINE",
"166 316 LINE",
"164 316 LINE",
"164 657 LINE",
"92 657 LINE",
"92 0 LINE"
);
}
);
width = 572;
}
);
note = uni004B;
rightKerningGroup = K;
unicode = 004B;
},
{
glyphname = L;
layers = (
{
layerId = "8AD06237-24D7-4ED2-B5ED-9E3907A842BF";
paths = (
{
closed = 1;
nodes = (
"456 0 LINE",
"456 61 LINE",
"164 61 LINE",
"164 657 LINE",
"92 657 LINE",
"92 0 LINE"
);
}
);
width = 480;
}
);
note = uni004C;
rightKerningGroup = L;
unicode = 004C;
},
{
glyphname = M;
layers = (
{
layerId = "8AD06237-24D7-4ED2-B5ED-9E3907A842BF";
paths = (
{
closed = 1;
nodes = (
"157 0 LINE",
"157 384 LINE SMOOTH",
"157 412 OFFCURVE",
"154 478 OFFCURVE",
"150 545 OFFCURVE",
"148 573 QCURVE",
"152 573 LINE",
"204 424 LINE",
"334 68 LINE",
"385 68 LINE",
"514 424 LINE",
"566 573 LINE",
"570 573 LINE",
"568 545 OFFCURVE",
"564 478 OFFCURVE",
"561 412 OFFCURVE",
"561 384 QCURVE SMOOTH",
"561 0 LINE",
"628 0 LINE",
"628 657 LINE",
"539 657 LINE",
"410 295 LINE SMOOTH",
"398 261 OFFCURVE",
"376 191 OFFCURVE",
"363 155 QCURVE",
"359 155 LINE",
"347 191 OFFCURVE",
"324 261 OFFCURVE",
"311 295 QCURVE SMOOTH",
"181 657 LINE",
"92 657 LINE",
"92 0 LINE"
);
}
);
width = 720;
}
);
note = uni004D;
rightKerningGroup = H;
unicode = 004D;
},
{
glyphname = N;
layers = (
{
layerId = "8AD06237-24D7-4ED2-B5ED-9E3907A842BF";
paths = (
{
closed = 1;
nodes = (
"160 0 LINE",
"160 365 LINE SMOOTH",
"160 415 OFFCURVE",
"154 515 OFFCURVE",
"151 564 QCURVE",
"155 564 LINE",
"227 430 LINE",
"477 0 LINE",
"551 0 LINE",
"551 657 LINE",
"483 657 LINE",
"483 297 LINE SMOOTH",
"483 247 OFFCURVE",
"490 143 OFFCURVE",
"492 93 QCURVE",
"488 93 LINE",
"416 228 LINE",
"166 657 LINE",
"92 657 LINE",
"92 0 LINE"
);
}
);
width = 643;
}
);
note = uni004E;
rightKerningGroup = H;
unicode = 004E;
},
{
glyphname = O;
layers = (
{
layerId = "8AD06237-24D7-4ED2-B5ED-9E3907A842BF";
paths = (
{
closed = 1;
nodes = (
"412 -12 OFFCURVE",
"537 72 OFFCURVE",
"608 226 OFFCURVE",
"608 331 QCURVE SMOOTH",
"608 436 OFFCURVE",
"537 588 OFFCURVE",
"412 669 OFFCURVE",
"330 669 QCURVE SMOOTH",
"249 669 OFFCURVE",
"124 588 OFFCURVE",
"53 436 OFFCURVE",
"53 331 QCURVE SMOOTH",
"53 226 OFFCURVE",
"124 72 OFFCURVE",
"249 -12 OFFCURVE",
"330 -12 QCURVE SMOOTH"
);
},
{
closed = 1;
nodes = (
"269 51 OFFCURVE",
"178 121 OFFCURVE",
"127 246 OFFCURVE",
"127 331 QCURVE SMOOTH",
"127 416 OFFCURVE",
"178 539 OFFCURVE",
"269 606 OFFCURVE",
"330 606 QCURVE SMOOTH",
"391 606 OFFCURVE",
"483 539 OFFCURVE",
"534 416 OFFCURVE",
"534 331 QCURVE SMOOTH",
"534 246 OFFCURVE",
"483 121 OFFCURVE",
"391 51 OFFCURVE",
"330 51 QCURVE SMOOTH"
);
}
);
width = 660;
}
);
leftKerningGroup = C;
note = uni004F;
rightKerningGroup = D;
unicode = 004F;
},
{
glyphname = P;
layers = (
{
layerId = "8AD06237-24D7-4ED2-B5ED-9E3907A842BF";
paths = (
{
closed = 1;
nodes = (
"164 0 LINE",
"164 268 LINE",
"277 268 LINE SMOOTH",
"349 268 OFFCURVE",
"457 311 OFFCURVE",
"517 400 OFFCURVE",
"517 467 QCURVE SMOOTH",
"517 538 OFFCURVE",
"456 621 OFFCURVE",
"347 657 OFFCURVE",
"273 657 QCURVE SMOOTH",
"92 657 LINE",
"92 0 LINE"
);
},
{
closed = 1;
nodes = (
"164 599 LINE",
"262 599 LINE SMOOTH",
"353 599 OFFCURVE",
"445 542 OFFCURVE",
"445 467 QCURVE SMOOTH",
"445 394 OFFCURVE",
"357 326 OFFCURVE",
"266 326 QCURVE SMOOTH",
"164 326 LINE"
);
}
);
width = 561;
}
);
note = uni0050;
rightKerningGroup = P;
unicode = 0050;
},
{
glyphname = Q;
lastChange = "2019-05-01 14:52:33 +0000";
layers = (
{
layerId = "8AD06237-24D7-4ED2-B5ED-9E3907A842BF";
paths = (
{
closed = 1;
nodes = (
"412 -12 OFFCURVE",
"537 72 OFFCURVE",
"608 226 OFFCURVE",
"608 331 QCURVE SMOOTH",
"608 436 OFFCURVE",
"537 588 OFFCURVE",
"412 669 OFFCURVE",
"330 669 QCURVE SMOOTH",
"249 669 OFFCURVE",
"124 588 OFFCURVE",
"53 436 OFFCURVE",
"53 331 QCURVE SMOOTH",
"53 226 OFFCURVE",
"124 72 OFFCURVE",
"249 -12 OFFCURVE",
"330 -12 QCURVE SMOOTH"
);
},
{
closed = 1;
nodes = (
"269 48 OFFCURVE",
"178 118 OFFCURVE",
"127 245 OFFCURVE",
"127 331 QCURVE SMOOTH",
"127 416 OFFCURVE",
"178 539 OFFCURVE",
"269 606 OFFCURVE",
"330 606 QCURVE SMOOTH",
"391 606 OFFCURVE",
"483 539 OFFCURVE",
"534 416 OFFCURVE",
"534 331 QCURVE SMOOTH",
"534 245 OFFCURVE",
"483 118 OFFCURVE",
"391 48 OFFCURVE",
"330 48 QCURVE SMOOTH"
);
},
{
closed = 1;
nodes = (
"557 -162 OFFCURVE",
"604 -153 OFFCURVE",
"618 -148 QCURVE",
"604 -92 LINE",
"591 -95 OFFCURVE",
"558 -101 OFFCURVE",
"536 -101 QCURVE SMOOTH",
"496 -101 OFFCURVE",
"428 -77 OFFCURVE",
"378 -29 OFFCURVE",
"365 7 QCURVE",
"290 2 LINE",
"315 -68 OFFCURVE",
"437 -162 OFFCURVE",
"529 -162 QCURVE SMOOTH"
);
}
);
width = 660;
}
);
leftKerningGroup = C;
note = uni0051;
rightKerningGroup = D;
unicode = 0051;
},
{
glyphname = R;
layers = (
{
layerId = "8AD06237-24D7-4ED2-B5ED-9E3907A842BF";
paths = (
{
closed = 1;
nodes = (
"164 0 LINE",
"164 285 LINE",
"292 285 LINE SMOOTH",
"359 285 OFFCURVE",
"460 328 OFFCURVE",
"518 412 OFFCURVE",
"518 476 QCURVE SMOOTH",
"518 543 OFFCURVE",
"460 622 OFFCURVE",
"359 657 OFFCURVE",
"292 657 QCURVE SMOOTH",
"92 657 LINE",
"92 0 LINE"
);
},
{
closed = 1;
nodes = (
"164 599 LINE",
"280 599 LINE SMOOTH",
"361 599 OFFCURVE",
"446 544 OFFCURVE",
"446 476 QCURVE SMOOTH",
"446 409 OFFCURVE",
"361 344 OFFCURVE",
"280 344 QCURVE SMOOTH",
"164 344 LINE"
);
},
{
closed = 1;
nodes = (
"535 0 LINE",
"336 339 LINE",
"278 305 LINE",
"454 0 LINE"
);
}
);
width = 561;
}
);
note = uni0052;
rightKerningGroup = R;
unicode = 0052;
},
{
glyphname = S;
layers = (
{
layerId = "8AD06237-24D7-4ED2-B5ED-9E3907A842BF";
paths = (
{
closed = 1;
nodes = (
"338 -12 OFFCURVE",
"437 37 OFFCURVE",
"490 120 OFFCURVE",
"490 172 QCURVE SMOOTH",
"490 221 OFFCURVE",
"453 287 OFFCURVE",
"392 331 OFFCURVE",
"354 347 QCURVE SMOOTH",
"259 388 LINE",
"234 400 OFFCURVE",
"182 427 OFFCURVE",
"148 469 OFFCURVE",
"148 503 QCURVE SMOOTH",
"148 550 OFFCURVE",
"220 606 OFFCURVE",
"278 606 QCURVE SMOOTH",
"325 606 OFFCURVE",
"400 572 OFFCURVE",
"429 542 QCURVE",
"468 589 LINE",
"435 623 OFFCURVE",
"337 669 OFFCURVE",
"278 669 QCURVE SMOOTH",
"220 669 OFFCURVE",
"129 625 OFFCURVE",
"76 548 OFFCURVE",
"76 499 QCURVE SMOOTH",
"76 450 OFFCURVE",
"118 386 OFFCURVE",
"179 345 OFFCURVE",
"209 331 QCURVE SMOOTH",
"305 289 LINE SMOOTH",
"337 275 OFFCURVE",
"387 246 OFFCURVE",
"418 202 OFFCURVE",
"418 166 QCURVE SMOOTH",
"418 115 OFFCURVE",
"340 51 OFFCURVE",
"272 51 QCURVE SMOOTH",
"219 51 OFFCURVE",
"123 97 OFFCURVE",
"87 135 QCURVE",
"43 86 LINE",
"86 42 OFFCURVE",
"201 -12 OFFCURVE",
"271 -12 QCURVE SMOOTH"
);
}
);
width = 530;
}
);
leftKerningGroup = S;
note = uni0053;
rightKerningGroup = S;
unicode = 0053;
},
{
glyphname = T;
layers = (
{
layerId = "8AD06237-24D7-4ED2-B5ED-9E3907A842BF";
paths = (
{
closed = 1;
nodes = (
"302 0 LINE",
"302 596 LINE",
"504 596 LINE",
"504 657 LINE",
"28 657 LINE",
"28 596 LINE",
"230 596 LINE",
"230 0 LINE"
);
}
);
width = 532;
}
);
leftKerningGroup = T;
note = uni0054;
rightKerningGroup = T;
unicode = 0054;
},
{
glyphname = U;
layers = (
{
layerId = "8AD06237-24D7-4ED2-B5ED-9E3907A842BF";
paths = (
{
closed = 1;
nodes = (
"369 -12 OFFCURVE",
"452 17 OFFCURVE",
"516 80 OFFCURVE",
"552 187 OFFCURVE",
"552 265 QCURVE SMOOTH",
"552 657 LINE",
"484 657 LINE",
"484 265 LINE SMOOTH",
"484 184 OFFCURVE",
"440 90 OFFCURVE",
"366 51 OFFCURVE",
"321 51 QCURVE SMOOTH",
"277 51 OFFCURVE",
"204 90 OFFCURVE",
"161 184 OFFCURVE",
"161 265 QCURVE SMOOTH",
"161 657 LINE",
"90 657 LINE",
"90 265 LINE SMOOTH",
"90 187 OFFCURVE",
"125 80 OFFCURVE",
"189 17 OFFCURVE",
"273 -12 OFFCURVE",
"321 -12 QCURVE SMOOTH"
);
}
);
width = 642;
}
);
leftKerningGroup = U;
note = uni0055;
rightKerningGroup = U;
unicode = 0055;
},
{
glyphname = V;
layers = (
{
layerId = "8AD06237-24D7-4ED2-B5ED-9E3907A842BF";
paths = (
{
closed = 1;
nodes = (
"295 0 LINE",
"506 657 LINE",
"433 657 LINE",
"323 293 LINE SMOOTH",
"305 234 OFFCURVE",
"277 133 OFFCURVE",
"258 75 QCURVE",
"254 75 LINE",
"235 133 OFFCURVE",
"207 234 OFFCURVE",
"188 293 QCURVE SMOOTH",
"77 657 LINE",
"1 657 LINE",
"214 0 LINE"
);
}
);
width = 507;
}
);
leftKerningGroup = V;
note = uni0056;
rightKerningGroup = V;
unicode = 0056;
},
{
glyphname = W;
layers = (
{
layerId = "8AD06237-24D7-4ED2-B5ED-9E3907A842BF";
paths = (
{
closed = 1;
nodes = (
"250 0 LINE",
"354 413 LINE SMOOTH",
"363 452 OFFCURVE",
"381 524 OFFCURVE",
"388 562 QCURVE",
"392 562 LINE",
"400 524 OFFCURVE",
"417 452 OFFCURVE",
"425 413 QCURVE",
"531 0 LINE",
"616 0 LINE",
"755 657 LINE",
"686 657 LINE",
"613 290 LINE SMOOTH",
"603 237 OFFCURVE",
"583 131 OFFCURVE",
"573 77 QCURVE",
"569 77 LINE",
"557 131 OFFCURVE",
"533 237 OFFCURVE",
"520 290 QCURVE SMOOTH",
"425 657 LINE",
"359 657 LINE",
"264 290 LINE SMOOTH",
"252 237 OFFCURVE",
"228 130 OFFCURVE",
"216 77 QCURVE",
"212 77 LINE",
"202 130 OFFCURVE",
"182 237 OFFCURVE",
"172 290 QCURVE SMOOTH",
"98 657 LINE",
"24 657 LINE",
"167 0 LINE"
);
}
);
width = 781;
}
);
leftKerningGroup = W;
note = uni0057;
rightKerningGroup = W;
unicode = 0057;
},
{
glyphname = X;
layers = (
{
layerId = "8AD06237-24D7-4ED2-B5ED-9E3907A842BF";
paths = (
{
closed = 1;
nodes = (
"91 0 LINE",
"192 185 LINE SMOOTH",
"205 209 OFFCURVE",
"231 260 OFFCURVE",
"245 290 QCURVE",
"249 290 LINE",
"266 260 OFFCURVE",
"294 209 OFFCURVE",
"307 185 QCURVE SMOOTH",
"409 0 LINE",
"488 0 LINE",
"294 336 LINE",
"475 657 LINE",
"400 657 LINE",
"306 481 LINE SMOOTH",
"294 459 OFFCURVE",
"272 416 OFFCURVE",
"259 387 QCURVE",
"255 387 LINE",
"239 416 OFFCURVE",
"216 459 OFFCURVE",
"203 481 QCURVE SMOOTH",
"107 657 LINE",
"29 657 LINE",
"209 340 LINE",
"16 0 LINE"
);
}
);
width = 503;
}
);
leftKerningGroup = X;
note = uni0058;
rightKerningGroup = X;
unicode = 0058;
},
{
glyphname = Y;
layers = (
{
layerId = "8AD06237-24D7-4ED2-B5ED-9E3907A842BF";
paths = (
{
closed = 1;
nodes = (
"269 0 LINE",
"269 258 LINE",
"466 657 LINE",
"393 657 LINE",
"303 465 LINE",
"288 429 OFFCURVE",
"254 359 OFFCURVE",
"236 322 QCURVE",
"232 322 LINE",
"214 359 OFFCURVE",
"182 429 OFFCURVE",
"166 465 QCURVE SMOOTH",
"76 657 LINE",
"0 657 LINE",
"197 258 LINE",
"197 0 LINE"
);
}
);
width = 466;
}
);
leftKerningGroup = Y;
note = uni0059;
rightKerningGroup = Y;
unicode = 0059;
},
{
glyphname = Z;
layers = (
{
layerId = "8AD06237-24D7-4ED2-B5ED-9E3907A842BF";
paths = (
{
closed = 1;
nodes = (
"495 0 LINE",
"495 61 LINE",
"135 61 LINE",
"491 615 LINE",
"491 657 LINE",
"78 657 LINE",
"78 596 LINE",
"403 596 LINE",
"46 42 LINE",
"46 0 LINE"
);
}
);
width = 539;
}
);
leftKerningGroup = Z;
note = uni005A;
rightKerningGroup = Z;
unicode = 005A;
},
{
glyphname = a;
layers = (
{
layerId = "8AD06237-24D7-4ED2-B5ED-9E3907A842BF";
paths = (
{
closed = 1;
nodes = (
"241 -12 OFFCURVE",
"324 30 OFFCURVE",
"359 59 QCURVE",
"362 59 LINE",
"368 0 LINE",
"426 0 LINE",
"426 301 LINE SMOOTH",
"426 359 OFFCURVE",
"393 446 OFFCURVE",
"321 496 OFFCURVE",
"263 496 QCURVE SMOOTH",
"224 496 OFFCURVE",
"154 476 OFFCURVE",
"96 447 OFFCURVE",
"76 433 QCURVE",
"104 384 LINE",
"131 403 OFFCURVE",
"207 438 OFFCURVE",
"251 438 QCURVE SMOOTH",
"294 438 OFFCURVE",
"339 399 OFFCURVE",
"356 338 OFFCURVE",
"356 305 QCURVE",
"199 288 OFFCURVE",
"54 203 OFFCURVE",
"54 124 QCURVE SMOOTH",
"54 80 OFFCURVE",
"91 20 OFFCURVE",
"155 -12 OFFCURVE",
"195 -12 QCURVE SMOOTH"
);
},
{
closed = 1;
nodes = (
"176 45 OFFCURVE",
"123 84 OFFCURVE",
"123 129 QCURVE SMOOTH",
"123 162 OFFCURVE",
"167 213 OFFCURVE",
"269 248 OFFCURVE",
"356 258 QCURVE",
"356 114 LINE",
"318 81 OFFCURVE",
"251 45 OFFCURVE",
"214 45 QCURVE SMOOTH"
);
}
);
width = 500;
}
);
leftKerningGroup = a;
note = uni0061;
rightKerningGroup = a;
unicode = 0061;
},
{
glyphname = b;
layers = (
{
layerId = "8AD06237-24D7-4ED2-B5ED-9E3907A842BF";
paths = (
{
closed = 1;
nodes = (
"347 -12 OFFCURVE",
"443 50 OFFCURVE",
"502 167 OFFCURVE",
"502 250 QCURVE SMOOTH",
"502 325 OFFCURVE",
"459 435 OFFCURVE",
"373 496 OFFCURVE",
"310 496 QCURVE SMOOTH",
"268 496 OFFCURVE",
"187 456 OFFCURVE",
"153 426 QCURVE",
"155 515 LINE",
"155 715 LINE",
"85 715 LINE",
"85 0 LINE",
"142 0 LINE",
"149 50 LINE",
"151 50 LINE",
"184 21 OFFCURVE",
"258 -12 OFFCURVE",
"291 -12 QCURVE SMOOTH"
);
},
{
closed = 1;
nodes = (
"256 48 OFFCURVE",
"190 72 OFFCURVE",
"155 102 QCURVE",
"155 366 LINE",
"192 401 OFFCURVE",
"262 437 OFFCURVE",
"294 437 QCURVE SMOOTH",
"343 437 OFFCURVE",
"402 389 OFFCURVE",
"430 304 OFFCURVE",
"430 249 QCURVE SMOOTH",
"430 187 OFFCURVE",
"391 97 OFFCURVE",
"324 48 OFFCURVE",
"281 48 QCURVE SMOOTH"
);
}
);
width = 550;
}
);
leftKerningGroup = b;
note = uni0062;
rightKerningGroup = b;
unicode = 0062;
},
{
glyphname = c;
layers = (
{
layerId = "8AD06237-24D7-4ED2-B5ED-9E3907A842BF";
paths = (
{
closed = 1;
nodes = (
"317 -12 OFFCURVE",
"396 22 OFFCURVE",
"428 50 QCURVE",
"397 98 LINE",
"374 77 OFFCURVE",
"314 47 OFFCURVE",
"278 47 QCURVE SMOOTH",
"231 47 OFFCURVE",
"160 96 OFFCURVE",
"120 183 OFFCURVE",
"120 241 QCURVE SMOOTH",
"120 299 OFFCURVE",
"162 388 OFFCURVE",
"234 437 OFFCURVE",
"280 437 QCURVE SMOOTH",
"311 437 OFFCURVE",
"360 412 OFFCURVE",
"382 392 QCURVE",
"419 438 LINE",
"394 462 OFFCURVE",
"326 496 OFFCURVE",
"277 496 QCURVE SMOOTH",
"216 496 OFFCURVE",
"112 436 OFFCURVE",
"48 322 OFFCURVE",
"48 241 QCURVE SMOOTH",
"48 161 OFFCURVE",
"107 48 OFFCURVE",
"209 -12 OFFCURVE",
"273 -12 QCURVE SMOOTH"
);
}
);
width = 453;
}
);
leftKerningGroup = c;
note = uni0063;
rightKerningGroup = c;
unicode = 0063;
},
{
glyphname = d;
layers = (
{
layerId = "8AD06237-24D7-4ED2-B5ED-9E3907A842BF";
paths = (
{
closed = 1;
nodes = (
"294 -12 OFFCURVE",
"370 30 OFFCURVE",
"399 59 QCURVE",
"402 59 LINE",
"408 0 LINE",
"466 0 LINE",
"466 715 LINE",
"396 715 LINE",
"396 524 LINE",
"399 439 LINE",
"366 466 OFFCURVE",
"303 496 OFFCURVE",
"260 496 QCURVE SMOOTH",
"204 496 OFFCURVE",
"108 434 OFFCURVE",
"49 320 OFFCURVE",
"49 241 QCURVE SMOOTH",
"49 120 OFFCURVE",
"158 -12 OFFCURVE",
"249 -12 QCURVE SMOOTH"
);
},
{
closed = 1;
nodes = (
"195 48 OFFCURVE",
"122 152 OFFCURVE",
"122 242 QCURVE SMOOTH",
"122 299 OFFCURVE",
"162 387 OFFCURVE",
"229 437 OFFCURVE",
"271 437 QCURVE SMOOTH",
"303 437 OFFCURVE",
"363 412 OFFCURVE",
"396 382 QCURVE",
"396 118 LINE",
"364 83 OFFCURVE",
"299 48 OFFCURVE",
"263 48 QCURVE SMOOTH"
);
}
);
width = 551;
}
);
leftKerningGroup = c;
note = uni0064;
rightKerningGroup = d;
unicode = 0064;
},
{
glyphname = e;
layers = (
{
layerId = "8AD06237-24D7-4ED2-B5ED-9E3907A842BF";
paths = (
{
closed = 1;
nodes = (
"328 -12 OFFCURVE",
"404 18 OFFCURVE",
"435 37 QCURVE",
"409 85 LINE",
"382 67 OFFCURVE",
"322 45 OFFCURVE",
"285 45 QCURVE SMOOTH",
"236 45 OFFCURVE",
"163 91 OFFCURVE",
"120 172 OFFCURVE",
"118 227 QCURVE",
"451 227 LINE",
"453 236 OFFCURVE",
"454 259 OFFCURVE",
"454 270 QCURVE SMOOTH",
"454 340 OFFCURVE",
"409 441 OFFCURVE",
"324 496 OFFCURVE",
"263 496 QCURVE SMOOTH",
"208 496 OFFCURVE",
"110 434 OFFCURVE",
"48 320 OFFCURVE",
"48 241 QCURVE SMOOTH",
"48 162 OFFCURVE",
"109 49 OFFCURVE",
"213 -12 OFFCURVE",
"277 -12 QCURVE SMOOTH"
);
},
{
closed = 1;
nodes = (
"122 329 OFFCURVE",
"164 401 OFFCURVE",
"228 439 OFFCURVE",
"265 439 QCURVE SMOOTH",
"324 439 OFFCURVE",
"391 358 OFFCURVE",
"391 278 QCURVE",
"117 278 LINE"
);
}
);
width = 492;
}
);
leftKerningGroup = c;
note = uni0065;
rightKerningGroup = e;
unicode = 0065;
},
{
glyphname = f;
layers = (
{
layerId = "8AD06237-24D7-4ED2-B5ED-9E3907A842BF";
paths = (
{
closed = 1;
nodes = (
"167 0 LINE",
"167 569 LINE SMOOTH",
"167 618 OFFCURVE",
"202 669 OFFCURVE",
"237 669 QCURVE SMOOTH",
"251 669 OFFCURVE",
"279 663 OFFCURVE",
"293 656 QCURVE",
"309 710 LINE",
"293 718 OFFCURVE",
"252 727 OFFCURVE",
"231 727 QCURVE SMOOTH",
"186 727 OFFCURVE",
"126 689 OFFCURVE",
"97 620 OFFCURVE",
"97 571 QCURVE SMOOTH",
"97 0 LINE"
);
},
{
closed = 1;
nodes = (
"272 426 LINE",
"272 484 LINE",
"99 484 LINE",
"31 480 LINE",
"31 426 LINE"
);
}
);
width = 282;
}
);
leftKerningGroup = f;
note = uni0066;
rightKerningGroup = f;
unicode = 0066;
},
{
glyphname = g;
layers = (
{
layerId = "8AD06237-24D7-4ED2-B5ED-9E3907A842BF";
paths = (
{
closed = 1;
nodes = (
"320 -226 OFFCURVE",
"428 -179 OFFCURVE",
"487 -104 OFFCURVE",
"487 -60 QCURVE SMOOTH",
"487 0 OFFCURVE",
"405 54 OFFCURVE",
"321 54 QCURVE SMOOTH",
"224 54 LINE SMOOTH",
"174 54 OFFCURVE",
"136 86 OFFCURVE",
"136 110 QCURVE SMOOTH",
"136 132 OFFCURVE",
"156 160 OFFCURVE",
"170 171 QCURVE",
"187 163 OFFCURVE",
"226 154 OFFCURVE",
"245 154 QCURVE SMOOTH",
"293 154 OFFCURVE",
"372 196 OFFCURVE",
"419 271 OFFCURVE",
"419 323 QCURVE SMOOTH",
"419 356 OFFCURVE",
"395 412 OFFCURVE",
"375 429 QCURVE",
"479 429 LINE",
"479 484 LINE",
"312 484 LINE",
"299 489 OFFCURVE",
"265 496 OFFCURVE",
"245 496 QCURVE SMOOTH",
"196 496 OFFCURVE",
"115 454 OFFCURVE",
"66 376 OFFCURVE",
"66 324 QCURVE SMOOTH",
"66 281 OFFCURVE",
"105 213 OFFCURVE",
"129 193 QCURVE",
"129 189 LINE",
"111 177 OFFCURVE",
"76 131 OFFCURVE",
"76 100 QCURVE SMOOTH",
"76 72 OFFCURVE",
"100 33 OFFCURVE",
"119 21 QCURVE",
"119 17 LINE",
"85 -5 OFFCURVE",
"47 -63 OFFCURVE",
"47 -95 QCURVE SMOOTH",
"47 -136 OFFCURVE",
"97 -195 OFFCURVE",
"187 -226 OFFCURVE",
"247 -226 QCURVE SMOOTH"
);
},
{
closed = 1;
nodes = (
"215 203 OFFCURVE",
"165 233 OFFCURVE",
"135 287 OFFCURVE",
"135 324 QCURVE SMOOTH",
"135 381 OFFCURVE",
"199 444 OFFCURVE",
"245 444 QCURVE SMOOTH",
"275 444 OFFCURVE",
"325 415 OFFCURVE",
"355 362 OFFCURVE",
"355 324 QCURVE SMOOTH",
"355 287 OFFCURVE",
"324 233 OFFCURVE",
"274 203 OFFCURVE",
"245 203 QCURVE SMOOTH"
);
},
{
closed = 1;
nodes = (
"188 -176 OFFCURVE",
"110 -127 OFFCURVE",
"110 -86 QCURVE SMOOTH",
"110 -63 OFFCURVE",
"135 -18 OFFCURVE",
"164 2 QCURVE",
"181 -2 OFFCURVE",
"214 -5 OFFCURVE",
"226 -5 QCURVE SMOOTH",
"316 -5 LINE SMOOTH",
"365 -5 OFFCURVE",
"418 -34 OFFCURVE",
"418 -70 QCURVE SMOOTH",
"418 -97 OFFCURVE",
"377 -146 OFFCURVE",
"305 -176 OFFCURVE",
"257 -176 QCURVE SMOOTH"
);
}
);
width = 499;
}
);
leftKerningGroup = g;
note = uni0067;
rightKerningGroup = g;
unicode = 0067;
},
{
glyphname = h;
lastChange = "2019-05-03 04:16:23 +0000";
layers = (
{
layerId = "8AD06237-24D7-4ED2-B5ED-9E3907A842BF";
paths = (
{
closed = 1;
nodes = (
"155 0 LINE",
"155 355 LINE",
"195 395 OFFCURVE",
"257 435 OFFCURVE",
"296 435 QCURVE SMOOTH",
"348 435 OFFCURVE",
"393 370 OFFCURVE",
"393 299 QCURVE SMOOTH",
"393 0 LINE",
"463 0 LINE",
"463 308 LINE SMOOTH",
"463 401 OFFCURVE",
"393 496 OFFCURVE",
"316 496 QCURVE SMOOTH",
"266 496 OFFCURVE",
"188 448 OFFCURVE",
"153 414 QCURVE",
"155 515 LINE",
"155 715 LINE",
"85 715 LINE",
"85 0 LINE"
);
}
);
width = 539;
}
);
leftKerningGroup = b;
note = uni0068;
rightKerningGroup = h;
unicode = 0068;
},
{
glyphname = i;
lastChange = "2019-05-04 03:21:26 +0000";
layers = (
{
layerId = "8AD06237-24D7-4ED2-B5ED-9E3907A842BF";
paths = (
{
closed = 1;
nodes = (
"155 0 LINE",
"155 484 LINE",
"85 484 LINE",
"85 0 LINE"
);
},
{
closed = 1;
nodes = (
"143 589 OFFCURVE",
"170 617 OFFCURVE",
"170 639 QCURVE SMOOTH",
"170 661 OFFCURVE",
"143 688 OFFCURVE",
"121 688 QCURVE SMOOTH",
"100 688 OFFCURVE",
"72 661 OFFCURVE",
"72 639 QCURVE SMOOTH",
"72 617 OFFCURVE",
"100 589 OFFCURVE",
"121 589 QCURVE SMOOTH"
);
}
);
width = 241;
}
);
leftKerningGroup = i;
note = uni0069;
rightKerningGroup = i;
unicode = 0069;
},
{
glyphname = j;
lastChange = "2019-05-04 03:21:39 +0000";
layers = (
{
layerId = "8AD06237-24D7-4ED2-B5ED-9E3907A842BF";
paths = (
{
closed = 1;
nodes = (
"76 -221 OFFCURVE",
"131 -184 OFFCURVE",
"156 -115 OFFCURVE",
"156 -66 QCURVE SMOOTH",
"156 484 LINE",
"86 484 LINE",
"86 -65 LINE SMOOTH",
"86 -109 OFFCURVE",
"62 -163 OFFCURVE",
"24 -163 QCURVE SMOOTH",
"11 -163 OFFCURVE",
"-14 -157 OFFCURVE",
"-23 -154 QCURVE",
"-37 -208 LINE",
"-25 -213 OFFCURVE",
"10 -221 OFFCURVE",
"31 -221 QCURVE SMOOTH"
);
},
{
closed = 1;
nodes = (
"141 589 OFFCURVE",
"168 617 OFFCURVE",
"168 639 QCURVE SMOOTH",
"168 661 OFFCURVE",
"141 688 OFFCURVE",
"119 688 QCURVE SMOOTH",
"98 688 OFFCURVE",
"70 661 OFFCURVE",
"70 639 QCURVE SMOOTH",
"70 617 OFFCURVE",
"98 589 OFFCURVE",
"119 589 QCURVE SMOOTH"
);
}
);
width = 241;
}
);
leftKerningGroup = j;
note = uni006A;
rightKerningGroup = j;
unicode = 006A;
},
{
glyphname = k;
layers = (
{
layerId = "8AD06237-24D7-4ED2-B5ED-9E3907A842BF";
paths = (
{
closed = 1;
nodes = (
"154 0 LINE",
"154 129 LINE",
"251 241 LINE",
"398 0 LINE",
"475 0 LINE",
"291 291 LINE",
"452 484 LINE",
"374 484 LINE",
"157 217 LINE",
"154 217 LINE",
"154 715 LINE",
"85 715 LINE",
"85 0 LINE"
);
}
);
width = 485;
}
);
leftKerningGroup = b;
note = uni006B;
rightKerningGroup = k;
unicode = 006B;
},
{
glyphname = l;
layers = (
{
layerId = "8AD06237-24D7-4ED2-B5ED-9E3907A842BF";
paths = (
{
closed = 1;
nodes = (
"178 -12 OFFCURVE",
"198 -8 OFFCURVE",
"206 -5 QCURVE",
"196 49 LINE",
"189 48 OFFCURVE",
"181 47 OFFCURVE",
"178 47 QCURVE SMOOTH",
"169 47 OFFCURVE",
"155 63 OFFCURVE",
"155 81 QCURVE SMOOTH",
"155 715 LINE",
"85 715 LINE",
"85 87 LINE SMOOTH",
"85 55 OFFCURVE",
"101 11 OFFCURVE",
"136 -12 OFFCURVE",
"163 -12 QCURVE SMOOTH"
);
}
);
width = 249;
}
);
leftKerningGroup = b;
note = uni006C;
rightKerningGroup = l;
unicode = 006C;
},
{
glyphname = m;
layers = (
{
layerId = "8AD06237-24D7-4ED2-B5ED-9E3907A842BF";
paths = (
{
closed = 1;
nodes = (
"155 0 LINE",
"155 355 LINE",
"226 435 OFFCURVE",
"284 435 QCURVE SMOOTH",
"334 435 OFFCURVE",
"380 370 OFFCURVE",
"380 299 QCURVE SMOOTH",
"380 0 LINE",
"450 0 LINE",
"450 355 LINE",
"486 395 OFFCURVE",
"549 435 OFFCURVE",
"579 435 QCURVE SMOOTH",
"629 435 OFFCURVE",
"675 370 OFFCURVE",
"675 299 QCURVE SMOOTH",
"675 0 LINE",
"745 0 LINE",
"745 308 LINE SMOOTH",
"745 401 OFFCURVE",
"673 496 OFFCURVE",
"599 496 QCURVE SMOOTH",
"555 496 OFFCURVE",
"476 445 OFFCURVE",
"437 402 QCURVE",
"423 445 OFFCURVE",
"360 496 OFFCURVE",
"304 496 QCURVE SMOOTH",
"261 496 OFFCURVE",
"184 448 OFFCURVE",
"152 412 QCURVE",
"150 412 LINE",
"143 484 LINE",
"85 484 LINE",
"85 0 LINE"
);
}
);
width = 823;
}
);
leftKerningGroup = m;
note = uni006D;
rightKerningGroup = h;
unicode = 006D;
},
{
glyphname = n;
layers = (
{
layerId = "8AD06237-24D7-4ED2-B5ED-9E3907A842BF";
paths = (
{
closed = 1;
nodes = (
"155 0 LINE",
"155 355 LINE",
"195 395 OFFCURVE",
"257 435 OFFCURVE",
"296 435 QCURVE SMOOTH",
"348 435 OFFCURVE",
"393 370 OFFCURVE",
"393 299 QCURVE SMOOTH",
"393 0 LINE",
"463 0 LINE",
"463 308 LINE SMOOTH",
"463 401 OFFCURVE",
"393 496 OFFCURVE",
"316 496 QCURVE SMOOTH",
"266 496 OFFCURVE",
"188 448 OFFCURVE",
"152 413 QCURVE",
"150 413 LINE",
"143 484 LINE",
"85 484 LINE",
"85 0 LINE"
);
}
);
width = 542;
}
);
leftKerningGroup = m;
note = uni006E;
rightKerningGroup = h;
unicode = 006E;
},
{
glyphname = o;
layers = (
{
layerId = "8AD06237-24D7-4ED2-B5ED-9E3907A842BF";
paths = (
{
closed = 1;
nodes = (
"329 -12 OFFCURVE",
"430 48 OFFCURVE",
"492 161 OFFCURVE",
"492 241 QCURVE SMOOTH",
"492 322 OFFCURVE",
"430 436 OFFCURVE",
"329 496 OFFCURVE",
"270 496 QCURVE SMOOTH",
"211 496 OFFCURVE",
"109 436 OFFCURVE",
"48 322 OFFCURVE",
"48 241 QCURVE SMOOTH",
"48 161 OFFCURVE",
"109 48 OFFCURVE",
"211 -12 OFFCURVE",
"270 -12 QCURVE SMOOTH"
);
},
{
closed = 1;
nodes = (
"226 47 OFFCURVE",
"159 96 OFFCURVE",
"120 183 OFFCURVE",
"120 241 QCURVE SMOOTH",
"120 299 OFFCURVE",
"159 388 OFFCURVE",
"226 437 OFFCURVE",
"270 437 QCURVE SMOOTH",
"314 437 OFFCURVE",
"382 388 OFFCURVE",
"419 299 OFFCURVE",
"419 241 QCURVE SMOOTH",
"419 183 OFFCURVE",
"382 96 OFFCURVE",
"314 47 OFFCURVE",
"270 47 QCURVE SMOOTH"
);
}
);
width = 540;
}
);
leftKerningGroup = c;
note = uni006F;
rightKerningGroup = b;
unicode = 006F;
},
{
glyphname = p;
layers = (
{
layerId = "8AD06237-24D7-4ED2-B5ED-9E3907A842BF";
paths = (
{
closed = 1;
nodes = (
"155 -209 LINE",
"155 -41 LINE",
"154 45 LINE",
"188 18 OFFCURVE",
"258 -12 OFFCURVE",
"291 -12 QCURVE SMOOTH",
"347 -12 OFFCURVE",
"443 50 OFFCURVE",
"502 167 OFFCURVE",
"502 249 QCURVE SMOOTH",
"502 324 OFFCURVE",
"459 435 OFFCURVE",
"373 496 OFFCURVE",
"310 496 QCURVE SMOOTH",
"267 496 OFFCURVE",
"186 455 OFFCURVE",
"152 427 QCURVE",
"150 427 LINE",
"143 484 LINE",
"85 484 LINE",
"85 -209 LINE"
);
},
{
closed = 1;
nodes = (
"256 48 OFFCURVE",
"191 72 OFFCURVE",
"155 102 QCURVE",
"155 366 LINE",
"194 401 OFFCURVE",
"262 437 OFFCURVE",
"294 437 QCURVE SMOOTH",
"343 437 OFFCURVE",
"402 389 OFFCURVE",
"430 304 OFFCURVE",
"430 249 QCURVE SMOOTH",
"430 187 OFFCURVE",
"391 97 OFFCURVE",
"324 48 OFFCURVE",
"281 48 QCURVE SMOOTH"
);
}
);
width = 551;
}
);
leftKerningGroup = m;
note = uni0070;
rightKerningGroup = b;
unicode = 0070;
},
{
glyphname = q;
layers = (
{
layerId = "8AD06237-24D7-4ED2-B5ED-9E3907A842BF";
paths = (
{
closed = 1;
nodes = (
"466 -209 LINE",
"466 484 LINE",
"410 484 LINE",
"403 439 LINE",
"400 439 LINE",
"368 466 OFFCURVE",
"303 496 OFFCURVE",
"260 496 QCURVE SMOOTH",
"204 496 OFFCURVE",
"108 434 OFFCURVE",
"49 320 OFFCURVE",
"49 241 QCURVE SMOOTH",
"49 120 OFFCURVE",
"158 -12 OFFCURVE",
"249 -12 QCURVE SMOOTH",
"293 -12 OFFCURVE",
"369 30 OFFCURVE",
"399 58 QCURVE",
"396 -32 LINE",
"396 -209 LINE"
);
},
{
closed = 1;
nodes = (
"195 48 OFFCURVE",
"122 152 OFFCURVE",
"122 242 QCURVE SMOOTH",
"122 299 OFFCURVE",
"162 387 OFFCURVE",
"229 437 OFFCURVE",
"271 437 QCURVE SMOOTH",
"303 437 OFFCURVE",
"363 412 OFFCURVE",
"396 382 QCURVE",
"396 118 LINE",
"364 83 OFFCURVE",
"299 48 OFFCURVE",
"263 48 QCURVE SMOOTH"
);
}
);
width = 551;
}
);
leftKerningGroup = c;
note = uni0071;
rightKerningGroup = b;
unicode = 0071;
},
{
glyphname = r;
layers = (
{
layerId = "8AD06237-24D7-4ED2-B5ED-9E3907A842BF";
paths = (
{
closed = 1;
nodes = (
"155 0 LINE",
"155 317 LINE",
"181 381 OFFCURVE",
"250 432 OFFCURVE",
"281 432 QCURVE SMOOTH",
"296 432 OFFCURVE",
"315 429 OFFCURVE",
"327 424 QCURVE",
"340 486 LINE",
"329 492 OFFCURVE",
"305 496 OFFCURVE",
"290 496 QCURVE SMOOTH",
"249 496 OFFCURVE",
"177 441 OFFCURVE",
"152 395 QCURVE",
"150 395 LINE",
"143 484 LINE",
"85 484 LINE",
"85 0 LINE"
);
}
);
width = 338;
}
);
leftKerningGroup = m;
note = uni0072;
rightKerningGroup = r;
unicode = 0072;
},
{
glyphname = s;
layers = (
{
layerId = "8AD06237-24D7-4ED2-B5ED-9E3907A842BF";
paths = (
{
closed = 1;
nodes = (
"265 -12 OFFCURVE",
"342 27 OFFCURVE",
"381 91 OFFCURVE",
"381 130 QCURVE SMOOTH",
"381 176 OFFCURVE",
"336 230 OFFCURVE",
"266 263 OFFCURVE",
"231 277 QCURVE",
"203 287 OFFCURVE",
"154 309 OFFCURVE",
"124 341 OFFCURVE",
"124 365 QCURVE SMOOTH",
"124 395 OFFCURVE",
"171 441 OFFCURVE",
"220 441 QCURVE SMOOTH",
"254 441 OFFCURVE",
"307 416 OFFCURVE",
"332 397 QCURVE",
"366 443 LINE",
"339 465 OFFCURVE",
"263 496 OFFCURVE",
"220 496 QCURVE SMOOTH",
"142 496 OFFCURVE",
"56 418 OFFCURVE",
"56 361 QCURVE SMOOTH",
"56 320 OFFCURVE",
"99 268 OFFCURVE",
"165 235 OFFCURVE",
"200 222 QCURVE SMOOTH",
"227 212 OFFCURVE",
"279 187 OFFCURVE",
"313 152 OFFCURVE",
"313 125 QCURVE SMOOTH",
"313 92 OFFCURVE",
"262 44 OFFCURVE",
"212 44 QCURVE SMOOTH",
"166 44 OFFCURVE",
"97 77 OFFCURVE",
"65 102 QCURVE",
"29 55 LINE",
"63 27 OFFCURVE",
"157 -12 OFFCURVE",
"209 -12 QCURVE SMOOTH"
);
}
);
width = 415;
}
);
leftKerningGroup = s;
note = uni0073;
rightKerningGroup = s;
unicode = 0073;
},
{
glyphname = t;
layers = (
{
layerId = "8AD06237-24D7-4ED2-B5ED-9E3907A842BF";
paths = (
{
closed = 1;
nodes = (
"251 -12 OFFCURVE",
"297 -1 OFFCURVE",
"317 6 QCURVE",
"303 60 LINE",
"291 55 OFFCURVE",
"259 46 OFFCURVE",
"246 46 QCURVE SMOOTH",
"202 46 OFFCURVE",
"169 98 OFFCURVE",
"169 143 QCURVE SMOOTH",
"169 426 LINE",
"303 426 LINE",
"303 484 LINE",
"169 484 LINE",
"169 621 LINE",
"110 621 LINE",
"101 484 LINE",
"25 480 LINE",
"25 426 LINE",
"99 426 LINE",
"99 145 LINE SMOOTH",
"99 75 OFFCURVE",
"156 -12 OFFCURVE",
"231 -12 QCURVE SMOOTH"
);
}
);
width = 330;
}
);
leftKerningGroup = t;
note = uni0074;
rightKerningGroup = t;
unicode = 0074;
},
{
glyphname = u;
layers = (
{
layerId = "8AD06237-24D7-4ED2-B5ED-9E3907A842BF";
paths = (
{
closed = 1;
nodes = (
"276 -12 OFFCURVE",
"353 37 OFFCURVE",
"387 77 QCURVE",
"390 77 LINE",
"396 0 LINE",
"454 0 LINE",
"454 484 LINE",
"384 484 LINE",
"384 136 LINE",
"347 91 OFFCURVE",
"285 49 OFFCURVE",
"246 49 QCURVE SMOOTH",
"195 49 OFFCURVE",
"148 115 OFFCURVE",
"148 185 QCURVE SMOOTH",
"148 484 LINE",
"78 484 LINE",
"78 176 LINE SMOOTH",
"78 83 OFFCURVE",
"150 -12 OFFCURVE",
"226 -12 QCURVE SMOOTH"
);
}
);
width = 539;
}
);
leftKerningGroup = u;
note = uni0075;
rightKerningGroup = b;
unicode = 0075;
},
{
glyphname = v;
layers = (
{
layerId = "8AD06237-24D7-4ED2-B5ED-9E3907A842BF";
paths = (
{
closed = 1;
nodes = (
"271 0 LINE",
"444 484 LINE",
"375 484 LINE",
"278 200 LINE SMOOTH",
"267 165 OFFCURVE",
"243 93 OFFCURVE",
"232 59 QCURVE",
"228 59 LINE",
"217 93 OFFCURVE",
"193 165 OFFCURVE",
"182 200 QCURVE SMOOTH",
"85 484 LINE",
"12 484 LINE",
"189 0 LINE"
);
}
);
width = 456;
}
);
leftKerningGroup = v;
note = uni0076;
rightKerningGroup = v;
unicode = 0076;
},
{
glyphname = w;
layers = (
{
layerId = "8AD06237-24D7-4ED2-B5ED-9E3907A842BF";
paths = (
{
closed = 1;
nodes = (
"244 0 LINE",
"317 272 LINE SMOOTH",
"327 307 OFFCURVE",
"343 376 OFFCURVE",
"351 412 QCURVE",
"355 412 LINE",
"365 376 OFFCURVE",
"381 308 OFFCURVE",
"390 273 QCURVE SMOOTH",
"464 0 LINE",
"551 0 LINE",
"684 484 LINE",
"616 484 LINE",
"541 194 LINE SMOOTH",
"533 160 OFFCURVE",
"517 94 OFFCURVE",
"509 60 QCURVE",
"505 60 LINE",
"497 94 OFFCURVE",
"480 160 OFFCURVE",
"471 194 QCURVE SMOOTH",
"391 484 LINE",
"320 484 LINE",
"241 194 LINE SMOOTH",
"232 160 OFFCURVE",
"215 94 OFFCURVE",
"207 60 QCURVE",
"203 60 LINE",
"196 94 OFFCURVE",
"181 160 OFFCURVE",
"173 194 QCURVE SMOOTH",
"96 484 LINE",
"24 484 LINE",
"161 0 LINE"
);
}
);
width = 708;
}
);
leftKerningGroup = w;
note = uni0077;
rightKerningGroup = w;
unicode = 0077;
},
{
glyphname = x;
layers = (
{
layerId = "8AD06237-24D7-4ED2-B5ED-9E3907A842BF";
paths = (
{
closed = 1;
nodes = (
"87 0 LINE",
"158 119 LINE SMOOTH",
"171 142 OFFCURVE",
"196 185 OFFCURVE",
"209 206 QCURVE",
"213 206 LINE",
"227 185 OFFCURVE",
"255 141 OFFCURVE",
"268 119 QCURVE SMOOTH",
"343 0 LINE",
"420 0 LINE",
"260 246 LINE",
"407 484 LINE",
"334 484 LINE",
"270 373 LINE SMOOTH",
"259 353 OFFCURVE",
"236 313 OFFCURVE",
"224 292 QCURVE",
"220 292 LINE",
"208 313 OFFCURVE",
"183 353 OFFCURVE",
"172 373 QCURVE",
"103 484 LINE",
"26 484 LINE",
"174 253 LINE",
"14 0 LINE"
);
}
);
width = 434;
}
);
leftKerningGroup = x;
note = uni0078;
rightKerningGroup = x;
unicode = 0078;
},
{
glyphname = y;
layers = (
{
layerId = "8AD06237-24D7-4ED2-B5ED-9E3907A842BF";
paths = (
{
closed = 1;
nodes = (
"132 -212 OFFCURVE",
"198 -168 OFFCURVE",
"244 -92 OFFCURVE",
"260 -47 QCURVE SMOOTH",
"445 484 LINE",
"376 484 LINE",
"284 205 LINE",
"275 173 OFFCURVE",
"253 102 OFFCURVE",
"242 68 QCURVE",
"238 68 LINE",
"226 102 OFFCURVE",
"201 174 OFFCURVE",
"189 205 QCURVE SMOOTH",
"85 484 LINE",
"12 484 LINE",
"208 -4 LINE",
"196 -41 LINE SMOOTH",
"180 -89 OFFCURVE",
"124 -153 OFFCURVE",
"82 -153 QCURVE SMOOTH",
"73 -153 OFFCURVE",
"52 -148 OFFCURVE",
"44 -146 QCURVE",
"30 -202 LINE",
"41 -206 OFFCURVE",
"69 -212 OFFCURVE",
"85 -212 QCURVE SMOOTH"
);
}
);
width = 457;
}
);
leftKerningGroup = y;
note = uni0079;
rightKerningGroup = y;
unicode = 0079;
},
{
glyphname = z;
layers = (
{
layerId = "8AD06237-24D7-4ED2-B5ED-9E3907A842BF";
paths = (
{
closed = 1;
nodes = (
"393 0 LINE",
"393 58 LINE",
"119 58 LINE",
"384 447 LINE",
"384 484 LINE",
"59 484 LINE",
"59 426 LINE",
"295 426 LINE",
"30 37 LINE",
"30 0 LINE"
);
}
);
width = 418;
}
);
leftKerningGroup = z;
note = uni007A;
rightKerningGroup = z;
unicode = 007A;
},
{
color = 3;
glyphname = pi;
lastChange = "2019-06-20 12:40:16 +0000";
layers = (
{
layerId = "8AD06237-24D7-4ED2-B5ED-9E3907A842BF";
paths = (
{
closed = 1;
nodes = (
"369 250 OFFCURVE",
"539 375 OFFCURVE",
"494 715 CURVE",
"421 715 LINE",
"467 412 OFFCURVE",
"332 312 OFFCURVE",
"141 312 CURVE",
"140 250 LINE"
);
},
{
closed = 1;
nodes = (
"170 -148 LINE",
"170 714 LINE",
"100 714 LINE",
"100 -148 LINE"
);
}
);
width = 622;
}
);
unicode = 03C0;
},
{
glyphname = ampersand;
layers = (
{
layerId = "8AD06237-24D7-4ED2-B5ED-9E3907A842BF";
paths = (
{
closed = 1;
nodes = (
"297 -12 OFFCURVE",
"400 45 OFFCURVE",
"440 90 QCURVE SMOOTH",
"487 144 OFFCURVE",
"553 278 OFFCURVE",
"575 351 QCURVE",
"509 351 LINE",
"491 284 OFFCURVE",
"432 169 OFFCURVE",
"391 124 QCURVE SMOOTH",
"358 90 OFFCURVE",
"281 45 OFFCURVE",
"238 45 QCURVE SMOOTH",
"200 45 OFFCURVE",
"139 77 OFFCURVE",
"102 134 OFFCURVE",
"102 173 QCURVE SMOOTH",
"102 210 OFFCURVE",
"144 271 OFFCURVE",
"209 324 OFFCURVE",
"284 377 OFFCURVE",
"349 434 OFFCURVE",
"391 501 OFFCURVE",
"391 542 QCURVE SMOOTH",
"391 598 OFFCURVE",
"326 669 OFFCURVE",
"267 669 QCURVE SMOOTH",
"224 669 OFFCURVE",
"158 629 OFFCURVE",
"121 560 OFFCURVE",
"121 516 QCURVE SMOOTH",
"121 463 OFFCURVE",
"167 346 OFFCURVE",
"247 228 OFFCURVE",
"346 122 OFFCURVE",
"398 80 QCURVE SMOOTH",
"443 45 OFFCURVE",
"527 -1 OFFCURVE",
"564 -12 QCURVE",
"584 47 LINE",
"553 57 OFFCURVE",
"479 98 OFFCURVE",
"440 128 QCURVE SMOOTH",
"394 164 OFFCURVE",
"302 258 OFFCURVE",
"227 364 OFFCURVE",
"182 470 OFFCURVE",
"182 518 QCURVE SMOOTH",
"182 560 OFFCURVE",
"228 617 OFFCURVE",
"267 617 QCURVE SMOOTH",
"303 617 OFFCURVE",
"332 571 OFFCURVE",
"332 541 QCURVE SMOOTH",
"332 505 OFFCURVE",
"289 448 OFFCURVE",
"221 398 OFFCURVE",
"145 348 OFFCURVE",
"77 290 OFFCURVE",
"33 217 OFFCURVE",
"33 169 QCURVE SMOOTH",
"33 116 OFFCURVE",
"84 34 OFFCURVE",
"173 -12 OFFCURVE",
"230 -12 QCURVE SMOOTH"
);
}
);
width = 598;
}
);
note = uni0026;
unicode = 0026;
},
{
glyphname = zero;
layers = (
{
layerId = "8AD06237-24D7-4ED2-B5ED-9E3907A842BF";
paths = (
{
closed = 1;
nodes = (
"340 -12 OFFCURVE",
"446 161 OFFCURVE",
"446 321 QCURVE SMOOTH",
"446 481 OFFCURVE",
"340 650 OFFCURVE",
"246 650 QCURVE SMOOTH",
"151 650 OFFCURVE",
"45 482 OFFCURVE",
"45 321 QCURVE SMOOTH",
"45 161 OFFCURVE",
"151 -12 OFFCURVE",
"246 -12 QCURVE SMOOTH"
);
},
{
closed = 1;
nodes = (
"206 45 OFFCURVE",
"147 104 OFFCURVE",
"114 227 OFFCURVE",
"114 321 QCURVE SMOOTH",
"114 416 OFFCURVE",
"147 537 OFFCURVE",
"206 593 OFFCURVE",
"246 593 QCURVE SMOOTH",
"285 593 OFFCURVE",
"344 537 OFFCURVE",
"377 416 OFFCURVE",
"377 321 QCURVE SMOOTH",
"377 227 OFFCURVE",
"344 104 OFFCURVE",
"285 45 OFFCURVE",
"246 45 QCURVE SMOOTH"
);
}
);
width = 491;
}
);
note = uni0030;
unicode = 0030;
},
{
glyphname = one;
layers = (
{
layerId = "8AD06237-24D7-4ED2-B5ED-9E3907A842BF";
paths = (
{
closed = 1;
nodes = (
"432 0 LINE",
"432 59 LINE",
"298 59 LINE",
"298 638 LINE",
"244 638 LINE",
"218 623 OFFCURVE",
"155 601 OFFCURVE",
"112 594 QCURVE",
"112 548 LINE",
"228 548 LINE",
"228 59 LINE",
"80 59 LINE",
"80 0 LINE"
);
}
);
width = 491;
}
);
note = uni0031;
unicode = 0031;
},
{
glyphname = two;
layers = (
{
layerId = "8AD06237-24D7-4ED2-B5ED-9E3907A842BF";
paths = (
{
closed = 1;
nodes = (
"446 0 LINE",
"446 61 LINE",
"251 61 LINE SMOOTH",
"225 61 OFFCURVE",
"169 58 OFFCURVE",
"143 56 QCURVE",
"223 140 OFFCURVE",
"345 280 OFFCURVE",
"414 404 OFFCURVE",
"414 465 QCURVE SMOOTH",
"414 521 OFFCURVE",
"369 604 OFFCURVE",
"285 650 OFFCURVE",
"226 650 QCURVE SMOOTH",
"166 650 OFFCURVE",
"76 597 OFFCURVE",
"37 554 QCURVE",
"78 514 LINE",
"106 547 OFFCURVE",
"177 592 OFFCURVE",
"218 592 QCURVE SMOOTH",
"283 592 OFFCURVE",
"345 519 OFFCURVE",
"345 462 QCURVE SMOOTH",
"345 409 OFFCURVE",
"275 291 OFFCURVE",
"139 141 OFFCURVE",
"40 42 QCURVE",
"40 0 LINE"
);
}
);
width = 491;
}
);
note = uni0032;
unicode = 0032;
},
{
glyphname = three;
layers = (
{
layerId = "8AD06237-24D7-4ED2-B5ED-9E3907A842BF";
paths = (
{
closed = 1;
nodes = (
"292 -12 OFFCURVE",
"385 32 OFFCURVE",
"440 113 OFFCURVE",
"440 170 QCURVE SMOOTH",
"440 214 OFFCURVE",
"402 281 OFFCURVE",
"339 324 OFFCURVE",
"300 333 QCURVE",
"300 337 LINE",
"352 356 OFFCURVE",
"417 432 OFFCURVE",
"417 491 QCURVE SMOOTH",
"417 542 OFFCURVE",
"369 613 OFFCURVE",
"285 650 OFFCURVE",
"232 650 QCURVE SMOOTH",
"176 650 OFFCURVE",
"88 605 OFFCURVE",
"52 571 QCURVE",
"90 526 LINE",
"118 555 OFFCURVE",
"189 592 OFFCURVE",
"230 592 QCURVE SMOOTH",
"283 592 OFFCURVE",
"346 535 OFFCURVE",
"346 486 QCURVE SMOOTH",
"346 451 OFFCURVE",
"310 394 OFFCURVE",
"229 360 OFFCURVE",
"159 360 QCURVE",
"159 305 LINE",
"236 305 OFFCURVE",
"328 271 OFFCURVE",
"369 211 OFFCURVE",
"369 172 QCURVE SMOOTH",
"369 115 OFFCURVE",
"292 47 OFFCURVE",
"231 47 QCURVE SMOOTH",
"172 47 OFFCURVE",
"93 94 OFFCURVE",
"64 124 QCURVE",
"27 78 LINE",
"48 55 OFFCURVE",
"106 14 OFFCURVE",
"184 -12 OFFCURVE",
"235 -12 QCURVE SMOOTH"
);
}
);
width = 491;
}
);
note = uni0033;
unicode = 0033;
},
{
glyphname = four;
layers = (
{
layerId = "8AD06237-24D7-4ED2-B5ED-9E3907A842BF";
paths = (
{
closed = 1;
nodes = (
"372 0 LINE",
"372 638 LINE",
"298 638 LINE",
"17 226 LINE",
"17 181 LINE",
"462 181 LINE",
"462 238 LINE",
"93 238 LINE",
"254 470 LINE",
"268 494 OFFCURVE",
"294 536 OFFCURVE",
"306 557 QCURVE",
"310 557 LINE",
"309 533 OFFCURVE",
"306 463 OFFCURVE",
"306 439 QCURVE SMOOTH",
"306 0 LINE"
);
}
);
width = 491;
}
);
note = uni0034;
unicode = 0034;
},
{
glyphname = five;
layers = (
{
layerId = "8AD06237-24D7-4ED2-B5ED-9E3907A842BF";
paths = (
{
closed = 1;
nodes = (
"286 -12 OFFCURVE",
"383 38 OFFCURVE",
"443 135 OFFCURVE",
"443 203 QCURVE SMOOTH",
"443 273 OFFCURVE",
"390 361 OFFCURVE",
"301 404 OFFCURVE",
"246 404 QCURVE SMOOTH",
"215 404 OFFCURVE",
"167 388 OFFCURVE",
"143 375 QCURVE",
"161 578 LINE",
"411 578 LINE",
"411 638 LINE",
"99 638 LINE",
"78 334 LINE",
"117 309 LINE",
"146 328 OFFCURVE",
"196 349 OFFCURVE",
"230 349 QCURVE SMOOTH",
"294 349 OFFCURVE",
"372 271 OFFCURVE",
"372 201 QCURVE SMOOTH",
"372 154 OFFCURVE",
"332 85 OFFCURVE",
"266 47 OFFCURVE",
"226 47 QCURVE SMOOTH",
"167 47 OFFCURVE",
"90 93 OFFCURVE",
"61 121 QCURVE",
"25 75 LINE",
"47 53 OFFCURVE",
"104 13 OFFCURVE",
"181 -12 OFFCURVE",
"232 -12 QCURVE SMOOTH"
);
}
);
width = 491;
}
);
note = uni0035;
unicode = 0035;
},
{
glyphname = six;
layers = (
{
layerId = "8AD06237-24D7-4ED2-B5ED-9E3907A842BF";
paths = (
{
closed = 1;
nodes = (
"316 -12 OFFCURVE",
"399 40 OFFCURVE",
"450 131 OFFCURVE",
"450 191 QCURVE SMOOTH",
"450 256 OFFCURVE",
"406 344 OFFCURVE",
"325 389 OFFCURVE",
"269 389 QCURVE SMOOTH",
"227 389 OFFCURVE",
"144 341 OFFCURVE",
"112 299 QCURVE",
"114 240 LINE",
"149 292 OFFCURVE",
"226 335 OFFCURVE",
"258 335 QCURVE SMOOTH",
"301 335 OFFCURVE",
"356 299 OFFCURVE",
"383 234 OFFCURVE",
"383 191 QCURVE SMOOTH",
"383 148 OFFCURVE",
"353 82 OFFCURVE",
"299 44 OFFCURVE",
"266 44 QCURVE SMOOTH",
"217 44 OFFCURVE",
"150 103 OFFCURVE",
"116 215 OFFCURVE",
"116 293 QCURVE SMOOTH",
"116 404 OFFCURVE",
"165 535 OFFCURVE",
"245 591 OFFCURVE",
"292 591 QCURVE SMOOTH",
"322 591 OFFCURVE",
"378 564 OFFCURVE",
"398 540 QCURVE",
"438 585 LINE",
"412 613 OFFCURVE",
"339 650 OFFCURVE",
"290 650 QCURVE SMOOTH",
"243 650 OFFCURVE",
"156 611 OFFCURVE",
"89 527 OFFCURVE",
"49 391 OFFCURVE",
"49 293 QCURVE SMOOTH",
"49 218 OFFCURVE",
"82 103 OFFCURVE",
"139 27 OFFCURVE",
"218 -12 OFFCURVE",
"266 -12 QCURVE SMOOTH"
);
}
);
width = 491;
}
);
note = uni0036;
unicode = 0036;
},
{
glyphname = seven;
layers = (
{
layerId = "8AD06237-24D7-4ED2-B5ED-9E3907A842BF";
paths = (
{
closed = 1;
nodes = (
"254 0 LINE",
"258 94 OFFCURVE",
"278 248 OFFCURVE",
"319 387 OFFCURVE",
"392 522 OFFCURVE",
"449 595 QCURVE",
"449 638 LINE",
"44 638 LINE",
"44 578 LINE",
"368 578 LINE",
"304 489 OFFCURVE",
"226 317 OFFCURVE",
"186 123 OFFCURVE",
"181 0 QCURVE"
);
}
);
width = 491;
}
);
note = uni0037;
unicode = 0037;
},
{
glyphname = eight;
layers = (
{
layerId = "8AD06237-24D7-4ED2-B5ED-9E3907A842BF";
paths = (
{
closed = 1;
nodes = (
"309 -12 OFFCURVE",
"400 34 OFFCURVE",
"450 110 OFFCURVE",
"450 157 QCURVE SMOOTH",
"450 200 OFFCURVE",
"418 261 OFFCURVE",
"367 304 OFFCURVE",
"339 321 QCURVE",
"339 325 LINE",
"358 340 OFFCURVE",
"399 387 OFFCURVE",
"427 447 OFFCURVE",
"427 481 QCURVE SMOOTH",
"427 555 OFFCURVE",
"333 650 OFFCURVE",
"250 650 QCURVE SMOOTH",
"200 650 OFFCURVE",
"120 610 OFFCURVE",
"73 537 OFFCURVE",
"73 489 QCURVE SMOOTH",
"73 439 OFFCURVE",
"128 367 OFFCURVE",
"163 342 QCURVE",
"163 338 LINE",
"133 322 OFFCURVE",
"77 272 OFFCURVE",
"41 205 OFFCURVE",
"41 163 QCURVE SMOOTH",
"41 113 OFFCURVE",
"95 33 OFFCURVE",
"188 -12 OFFCURVE",
"248 -12 QCURVE SMOOTH"
);
},
{
closed = 1;
nodes = (
"254 359 OFFCURVE",
"183 396 OFFCURVE",
"139 449 OFFCURVE",
"139 489 QCURVE SMOOTH",
"139 537 OFFCURVE",
"201 597 OFFCURVE",
"248 597 QCURVE SMOOTH",
"286 597 OFFCURVE",
"338 565 OFFCURVE",
"366 511 OFFCURVE",
"366 478 QCURVE SMOOTH",
"366 441 OFFCURVE",
"329 374 OFFCURVE",
"293 344 QCURVE"
);
},
{
closed = 1;
nodes = (
"208 41 OFFCURVE",
"142 75 OFFCURVE",
"105 133 OFFCURVE",
"105 169 QCURVE SMOOTH",
"105 216 OFFCURVE",
"161 289 OFFCURVE",
"202 315 QCURVE",
"249 297 OFFCURVE",
"332 258 OFFCURVE",
"382 203 OFFCURVE",
"382 159 QCURVE SMOOTH",
"382 125 OFFCURVE",
"349 72 OFFCURVE",
"289 41 OFFCURVE",
"249 41 QCURVE SMOOTH"
);
}
);
width = 491;
}
);
note = uni0038;
unicode = 0038;
},
{
glyphname = nine;
layers = (
{
layerId = "8AD06237-24D7-4ED2-B5ED-9E3907A842BF";
paths = (
{
closed = 1;
nodes = (
"248 -12 OFFCURVE",
"334 27 OFFCURVE",
"402 111 OFFCURVE",
"441 248 OFFCURVE",
"441 345 QCURVE SMOOTH",
"441 420 OFFCURVE",
"409 535 OFFCURVE",
"352 612 OFFCURVE",
"272 650 OFFCURVE",
"225 650 QCURVE SMOOTH",
"175 650 OFFCURVE",
"91 599 OFFCURVE",
"41 507 OFFCURVE",
"41 447 QCURVE SMOOTH",
"41 382 OFFCURVE",
"84 294 OFFCURVE",
"166 250 OFFCURVE",
"221 250 QCURVE SMOOTH",
"263 250 OFFCURVE",
"348 299 OFFCURVE",
"379 339 QCURVE",
"376 398 LINE",
"342 347 OFFCURVE",
"264 304 OFFCURVE",
"232 304 QCURVE SMOOTH",
"190 304 OFFCURVE",
"135 340 OFFCURVE",
"108 404 OFFCURVE",
"108 447 QCURVE SMOOTH",
"108 491 OFFCURVE",
"139 557 OFFCURVE",
"191 594 OFFCURVE",
"224 594 QCURVE SMOOTH",
"274 594 OFFCURVE",
"340 535 OFFCURVE",
"374 424 OFFCURVE",
"374 345 QCURVE SMOOTH",
"374 234 OFFCURVE",
"326 104 OFFCURVE",
"246 47 OFFCURVE",
"199 47 QCURVE SMOOTH",
"169 47 OFFCURVE",
"113 74 OFFCURVE",
"93 98 QCURVE",
"53 54 LINE",
"78 26 OFFCURVE",
"152 -12 OFFCURVE",
"201 -12 QCURVE SMOOTH"
);
}
);
width = 491;
}
);
note = uni0039;
unicode = 0039;
},
{
color = 3;
glyphname = a.001;
lastChange = "2019-06-20 12:40:11 +0000";
layers = (
{
layerId = "8AD06237-24D7-4ED2-B5ED-9E3907A842BF";
paths = (
{
closed = 1;
nodes = (
"352 -12 OFFCURVE",
"423 34 OFFCURVE",
"441 96 CURVE",
"421 141 LINE",
"404 78 OFFCURVE",
"332 46 OFFCURVE",
"276 46 CURVE SMOOTH",
"183 46 OFFCURVE",
"115 123 OFFCURVE",
"115 240 CURVE SMOOTH",
"115 360 OFFCURVE",
"178 438 OFFCURVE",
"286 438 CURVE",
"347 438 OFFCURVE",
"383 416 OFFCURVE",
"418 381 CURVE",
"423 427 LINE",
"381 477 OFFCURVE",
"341 496 OFFCURVE",
"282 496 CURVE SMOOTH",
"143 496 OFFCURVE",
"45 383 OFFCURVE",
"45 242 CURVE SMOOTH",
"45 96 OFFCURVE",
"137 -12 OFFCURVE",
"268 -12 CURVE SMOOTH"
);
},
{
closed = 1;
nodes = (
"399 35 OFFCURVE",
"455 -12 OFFCURVE",
"534 -12 CURVE SMOOTH",
"570 -12 OFFCURVE",
"600 -2 OFFCURVE",
"625 14 CURVE SMOOTH",
"658 38 OFFCURVE",
"680 78 OFFCURVE",
"690 130 CURVE",
"634 151 LINE",
"624 88 OFFCURVE",
"589 46 OFFCURVE",
"544 46 CURVE SMOOTH",
"502 46 OFFCURVE",
"469 70 OFFCURVE",
"469 143 CURVE SMOOTH",
"469 657 LINE",
"399 657 LINE",
"399 100 LINE SMOOTH"
);
}
);
width = 759;
}
);
},
{
color = 3;
glyphname = e.001;
lastChange = "2019-06-20 12:40:11 +0000";
layers = (
{
layerId = "8AD06237-24D7-4ED2-B5ED-9E3907A842BF";
paths = (
{
closed = 1;
nodes = (
"456 340 OFFCURVE",
"535 414 OFFCURVE",
"552 630 CURVE",
"533 650 LINE",
"495 464 OFFCURVE",
"428 406 OFFCURVE",
"351 406 CURVE SMOOTH",
"274 406 OFFCURVE",
"206 457 OFFCURVE",
"164 650 CURVE",
"145 630 LINE",
"162 414 OFFCURVE",
"244 340 OFFCURVE",
"350 340 CURVE SMOOTH"
);
},
{
closed = 1;
nodes = (
"164 0 LINE",
"164 657 LINE",
"94 657 LINE",
"94 0 LINE"
);
},
{
closed = 1;
nodes = (
"603 0 LINE",
"603 657 LINE",
"533 657 LINE",
"533 0 LINE"
);
}
);
width = 775;
}
);
},
{
color = 3;
glyphname = o.001;
lastChange = "2019-06-28 15:12:12 +0000";
layers = (
{
layerId = "8AD06237-24D7-4ED2-B5ED-9E3907A842BF";
paths = (
{
closed = 1;
nodes = (
"415 -12 OFFCURVE",
"532 86 OFFCURVE",
"532 241 CURVE SMOOTH",
"532 387 OFFCURVE",
"423 496 OFFCURVE",
"279 496 CURVE SMOOTH",
"136 496 OFFCURVE",
"26 390 OFFCURVE",
"26 241 CURVE SMOOTH",
"26 86 OFFCURVE",
"144 -12 OFFCURVE",
"279 -12 CURVE SMOOTH"
);
},
{
closed = 1;
nodes = (
"173 50 OFFCURVE",
"100 132 OFFCURVE",
"100 244 CURVE SMOOTH",
"100 358 OFFCURVE",
"170 434 OFFCURVE",
"279 433 CURVE SMOOTH",
"387 432 OFFCURVE",
"458 358 OFFCURVE",
"458 244 CURVE SMOOTH",
"458 132 OFFCURVE",
"384 50 OFFCURVE",
"279 50 CURVE SMOOTH"
);
}
);
width = 558;
}
);
},
{
color = 3;
glyphname = pe;
lastChange = "2019-05-04 14:37:37 +0000";
layers = (
{
layerId = "8AD06237-24D7-4ED2-B5ED-9E3907A842BF";
paths = (
{
closed = 1;
nodes = (
"170 -148 LINE",
"170 715 LINE",
"100 715 LINE",
"100 -148 LINE"
);
},
{
closed = 1;
nodes = (
"133 419 LINE",
"410 568 LINE",
"392 622 LINE",
"117 474 LINE"
);
},
{
closed = 1;
nodes = (
"133 191 LINE",
"451 359 LINE",
"433 413 LINE",
"117 246 LINE"
);
}
);
width = 551;
}
);
unicode = 05E4;
},
{
color = 3;
glyphname = sa;
lastChange = "2019-05-04 13:40:07 +0000";
layers = (
{
layerId = "8AD06237-24D7-4ED2-B5ED-9E3907A842BF";
paths = (
{
closed = 1;
nodes = (
"231 -148 LINE",
"301 -148 LINE",
"301 405 LINE",
"231 405 LINE"
);
},
{
closed = 0;
nodes = (
"298 390 LINE"
);
},
{
closed = 1;
nodes = (
"358 369 OFFCURVE",
"441 437 OFFCURVE",
"441 545 CURVE SMOOTH",
"441 648 OFFCURVE",
"366 726 OFFCURVE",
"264 726 CURVE SMOOTH",
"163 726 OFFCURVE",
"86 649 OFFCURVE",
"86 545 CURVE SMOOTH",
"86 438 OFFCURVE",
"166 369 OFFCURVE",
"263 369 CURVE SMOOTH"
);
},
{
closed = 1;
nodes = (
"196 417 OFFCURVE",
"151 471 OFFCURVE",
"151 541 CURVE SMOOTH",
"151 620 OFFCURVE",
"194 677 OFFCURVE",
"264 677 CURVE SMOOTH",
"334 677 OFFCURVE",
"376 620 OFFCURVE",
"376 541 CURVE SMOOTH",
"376 471 OFFCURVE",
"329 417 OFFCURVE",
"264 417 CURVE SMOOTH"
);
}
);
width = 600;
}
);
},
{
color = 3;
glyphname = se;
lastChange = "2019-05-04 13:40:07 +0000";
layers = (
{
layerId = "8AD06237-24D7-4ED2-B5ED-9E3907A842BF";
paths = (
{
closed = 1;
nodes = (
"762 611 OFFCURVE",
"618 705 OFFCURVE",
"348 654 CURVE",
"348 591 LINE",
"558 635 OFFCURVE",
"694 568 OFFCURVE",
"694 435 CURVE SMOOTH",
"694 304 OFFCURVE",
"581 229 OFFCURVE",
"360 270 CURVE",
"360 209 LINE",
"623 162 OFFCURVE",
"762 262 OFFCURVE",
"762 435 CURVE SMOOTH"
);
},
{
closed = 1;
nodes = (
"100 37 OFFCURVE",
"246 -51 OFFCURVE",
"516 -1 CURVE",
"516 60 LINE",
"305 18 OFFCURVE",
"169 89 OFFCURVE",
"169 218 CURVE SMOOTH",
"169 350 OFFCURVE",
"282 424 OFFCURVE",
"503 384 CURVE",
"503 445 LINE",
"243 492 OFFCURVE",
"100 388 OFFCURVE",
"100 214 CURVE SMOOTH"
);
}
);
width = 862;
}
);
},
{
color = 3;
glyphname = po;
lastChange = "2019-05-04 13:40:07 +0000";
layers = (
{
guideLines = (
{
angle = 90;
position = "{394, 54}";
}
);
layerId = "8AD06237-24D7-4ED2-B5ED-9E3907A842BF";
paths = (
{
closed = 1;
nodes = (
"426 288 LINE",
"426 657 LINE",
"356 657 LINE",
"356 288 LINE"
);
},
{
closed = 1;
nodes = (
"143 80 OFFCURVE",
"239 -12 OFFCURVE",
"391 -12 CURVE SMOOTH",
"555 -12 OFFCURVE",
"641 78 OFFCURVE",
"641 275 CURVE SMOOTH",
"641 325 LINE",
"143 325 LINE",
"143 275 LINE SMOOTH"
);
},
{
closed = 1;
nodes = (
"576 266 LINE",
"576 112 OFFCURVE",
"510 47 OFFCURVE",
"391 47 CURVE SMOOTH",
"275 47 OFFCURVE",
"207 120 OFFCURVE",
"207 266 CURVE"
);
}
);
width = 774;
}
);
},
{
color = 3;
glyphname = no;
lastChange = "2019-05-04 13:40:07 +0000";
layers = (
{
layerId = "8AD06237-24D7-4ED2-B5ED-9E3907A842BF";
paths = (
{
closed = 1;
nodes = (
"401 100 OFFCURVE",
"484 179 OFFCURVE",
"484 300 CURVE SMOOTH",
"484 413 OFFCURVE",
"411 490 OFFCURVE",
"308 490 CURVE SMOOTH",
"191 490 OFFCURVE",
"128 407 OFFCURVE",
"128 292 CURVE SMOOTH",
"128 184 OFFCURVE",
"192 100 OFFCURVE",
"298 100 CURVE SMOOTH"
);
},
{
closed = 1;
nodes = (
"229 155 OFFCURVE",
"171 198 OFFCURVE",
"171 294 CURVE SMOOTH",
"171 390 OFFCURVE",
"228 434 OFFCURVE",
"293 434 CURVE SMOOTH",
"362 434 OFFCURVE",
"409 383 OFFCURVE",
"409 298 CURVE SMOOTH",
"409 211 OFFCURVE",
"360 155 OFFCURVE",
"289 155 CURVE SMOOTH"
);
},
{
closed = 1;
nodes = (
"100 -148 LINE",
"170 -148 LINE",
"170 715 LINE",
"100 715 LINE"
);
}
);
width = 603;
}
);
},
{
color = 3;
glyphname = ne;
lastChange = "2019-05-04 13:40:07 +0000";
layers = (
{
layerId = "8AD06237-24D7-4ED2-B5ED-9E3907A842BF";
paths = (
{
closed = 1;
nodes = (
"327 557 LINE",
"327 0 LINE",
"397 0 LINE",
"397 557 LINE"
);
},
{
closed = 1;
nodes = (
"100 261 LINE",
"627 261 LINE",
"627 324 LINE",
"100 324 LINE"
);
}
);
width = 727;
}
);
},
{
color = 3;
glyphname = na;
lastChange = "2019-05-04 13:40:07 +0000";
layers = (
{
layerId = "8AD06237-24D7-4ED2-B5ED-9E3907A842BF";
paths = (
{
closed = 1;
nodes = (
"286 113 LINE",
"286 -148 LINE",
"356 -148 LINE",
"356 113 LINE"
);
},
{
closed = 1;
nodes = (
"101 153 OFFCURVE",
"177 90 OFFCURVE",
"294 90 CURVE SMOOTH",
"356 90 LINE",
"356 148 LINE",
"298 148 LINE SMOOTH",
"210 148 OFFCURVE",
"167 199 OFFCURVE",
"167 259 CURVE SMOOTH",
"167 319 OFFCURVE",
"209 369 OFFCURVE",
"299 369 CURVE SMOOTH",
"356 369 LINE",
"356 427 LINE",
"299 427 LINE",
"296 427 LINE SMOOTH",
"177 426 OFFCURVE",
"101 362 OFFCURVE",
"101 259 CURVE SMOOTH"
);
},
{
closed = 1;
nodes = (
"356 416 LINE",
"356 657 LINE",
"286 657 LINE",
"286 416 LINE"
);
},
{
closed = 1;
nodes = (
"198 596 LINE",
"433 596 LINE",
"433 657 LINE",
"198 657 LINE"
);
}
);
width = 600;
}
);
},
{
color = 3;
glyphname = mo;
lastChange = "2019-05-04 13:40:07 +0000";
layers = (
{
layerId = "8AD06237-24D7-4ED2-B5ED-9E3907A842BF";
paths = (
{
closed = 1;
nodes = (
"760 -12 OFFCURVE",
"866 82 OFFCURVE",
"866 243 CURVE SMOOTH",
"866 400 OFFCURVE",
"762 495 OFFCURVE",
"635 495 CURVE SMOOTH",
"486 495 OFFCURVE",
"398 386 OFFCURVE",
"398 236 CURVE SMOOTH",
"398 81 OFFCURVE",
"495 -12 OFFCURVE",
"631 -12 CURVE SMOOTH"
);
},
{
closed = 1;
nodes = (
"515 47 OFFCURVE",
"453 136 OFFCURVE",
"453 245 CURVE SMOOTH",
"453 358 OFFCURVE",
"519 437 OFFCURVE",
"621 437 CURVE SMOOTH",
"725 437 OFFCURVE",
"793 355 OFFCURVE",
"793 243 CURVE SMOOTH",
"793 124 OFFCURVE",
"715 47 OFFCURVE",
"619 47 CURVE SMOOTH"
);
},
{
closed = 1;
nodes = (
"163 411 LINE",
"178 422 OFFCURVE",
"209 434 OFFCURVE",
"244 434 CURVE SMOOTH",
"331 434 OFFCURVE",
"393 368 OFFCURVE",
"393 239 CURVE",
"393 120 OFFCURVE",
"337 47 OFFCURVE",
"233 47 CURVE SMOOTH",
"165 47 OFFCURVE",
"117 78 OFFCURVE",
"91 146 CURVE",
"50 97 LINE",
"87 19 OFFCURVE",
"149 -12 OFFCURVE",
"231 -12 CURVE SMOOTH",
"371 -12 OFFCURVE",
"450 80 OFFCURVE",
"450 231 CURVE SMOOTH",
"450 245 LINE",
"453 397 OFFCURVE",
"385 494 OFFCURVE",
"246 494 CURVE SMOOTH",
"210 494 OFFCURVE",
"166 483 OFFCURVE",
"142 469 CURVE"
);
}
);
width = 916;
}
);
},
{
color = 3;
glyphname = ma;
lastChange = "2019-05-04 13:40:07 +0000";
layers = (
{
layerId = "8AD06237-24D7-4ED2-B5ED-9E3907A842BF";
paths = (
{
closed = 1;
nodes = (
"100 274 LINE",
"100 86 OFFCURVE",
"213 -13 OFFCURVE",
"353 -13 CURVE SMOOTH",
"495 -13 OFFCURVE",
"598 86 OFFCURVE",
"598 274 CURVE",
"598 657 LINE",
"533 657 LINE",
"533 282 LINE",
"533 119 OFFCURVE",
"457 49 OFFCURVE",
"356 49 CURVE SMOOTH",
"252 49 OFFCURVE",
"164 128 OFFCURVE",
"164 282 CURVE",
"164 657 LINE",
"100 657 LINE"
);
},
{
closed = 1;
nodes = (
"103 604 LINE",
"596 604 LINE",
"596 657 LINE",
"103 657 LINE"
);
},
{
closed = 1;
nodes = (
"148 388 LINE",
"554 388 LINE",
"554 441 LINE",
"148 441 LINE"
);
}
);
width = 774;
}
);
},
{
color = 3;
glyphname = lo;
lastChange = "2019-06-10 14:14:11 +0000";
layers = (
{
layerId = "8AD06237-24D7-4ED2-B5ED-9E3907A842BF";
paths = (
{
closed = 1;
nodes = (
"475 -13 OFFCURVE",
"572 81 OFFCURVE",
"572 259 CURVE SMOOTH",
"572 531 LINE",
"572 713 OFFCURVE",
"490 764 OFFCURVE",
"400 764 CURVE",
"322 764 OFFCURVE",
"258 707 OFFCURVE",
"258 626 CURVE SMOOTH",
"258 611 OFFCURVE",
"259 597 OFFCURVE",
"263 584 CURVE SMOOTH",
"265 577 OFFCURVE",
"267 571 OFFCURVE",
"269 565 CURVE",
"333 585 LINE",
"327 596 OFFCURVE",
"324 613 OFFCURVE",
"324 630 CURVE SMOOTH",
"324 675 OFFCURVE",
"355 705 OFFCURVE",
"399 705 CURVE SMOOTH",
"456 705 OFFCURVE",
"504 677 OFFCURVE",
"504 542 CURVE",
"504 267 LINE SMOOTH",
"504 112 OFFCURVE",
"429 46 OFFCURVE",
"343 46 CURVE SMOOTH",
"254 46 OFFCURVE",
"168 121 OFFCURVE",
"168 267 CURVE SMOOTH",
"168 445 LINE",
"100 445 LINE",
"100 259 LINE SMOOTH",
"100 81 OFFCURVE",
"207 -13 OFFCURVE",
"340 -13 CURVE SMOOTH"
);
},
{
closed = 1;
nodes = (
"541 222 LINE",
"541 274 LINE",
"123 274 LINE",
"123 222 LINE"
);
},
{
closed = 1;
nodes = (
"571 402 LINE",
"571 454 LINE",
"100 454 LINE",
"100 402 LINE"
);
}
);
width = 672;
}
);
},
{
color = 3;
glyphname = li;
lastChange = "2019-05-04 13:40:07 +0000";
layers = (
{
layerId = "8AD06237-24D7-4ED2-B5ED-9E3907A842BF";
paths = (
{
closed = 1;
nodes = (
"336 424 OFFCURVE",
"268 499 OFFCURVE",
"184 499 CURVE SMOOTH",
"143 499 OFFCURVE",
"109 488 OFFCURVE",
"82 471 CURVE",
"93 411 LINE",
"112 424 OFFCURVE",
"146 437 OFFCURVE",
"185 437 CURVE SMOOTH",
"257 437 OFFCURVE",
"301 374 OFFCURVE",
"301 247 CURVE",
"301 125 OFFCURVE",
"264 50 OFFCURVE",
"185 50 CURVE SMOOTH",
"144 50 OFFCURVE",
"111 67 OFFCURVE",
"92 82 CURVE",
"80 18 LINE",
"111 -3 OFFCURVE",
"156 -12 OFFCURVE",
"187 -12 CURVE SMOOTH",
"267 -12 OFFCURVE",
"336 34 OFFCURVE",
"336 128 CURVE",
"336 34 OFFCURVE",
"405 -12 OFFCURVE",
"485 -12 CURVE SMOOTH",
"516 -12 OFFCURVE",
"561 -3 OFFCURVE",
"592 18 CURVE",
"579 82 LINE",
"561 67 OFFCURVE",
"528 50 OFFCURVE",
"487 50 CURVE SMOOTH",
"407 50 OFFCURVE",
"369 125 OFFCURVE",
"371 247 CURVE",
"371 374 OFFCURVE",
"412 437 OFFCURVE",
"487 437 CURVE SMOOTH",
"526 437 OFFCURVE",
"560 424 OFFCURVE",
"578 411 CURVE",
"590 471 LINE",
"563 488 OFFCURVE",
"529 499 OFFCURVE",
"489 499 CURVE SMOOTH",
"403 499 OFFCURVE",
"336 424 OFFCURVE",
"336 354 CURVE"
);
}
);
width = 766;
}
);
},
{
color = 3;
glyphname = la;
lastChange = "2019-05-04 19:36:56 +0000";
layers = (
{
layerId = "8AD06237-24D7-4ED2-B5ED-9E3907A842BF";
paths = (
{
closed = 1;
nodes = (
"50 484 LINE",
"50 0 LINE",
"120 0 LINE",
"120 484 LINE"
);
},
{
closed = 1;
nodes = (
"87 229 LINE",
"440 229 LINE",
"440 290 LINE",
"87 290 LINE"
);
}
);
width = 519;
}
);
},
{
color = 3;
glyphname = ki;
lastChange = "2019-05-04 13:40:07 +0000";
layers = (
{
layerId = "8AD06237-24D7-4ED2-B5ED-9E3907A842BF";
paths = (
{
closed = 1;
nodes = (
"218 153 LINE",
"286 153 LINE",
"286 390 LINE",
"218 390 LINE"
);
},
{
closed = 1;
nodes = (
"346 369 OFFCURVE",
"429 437 OFFCURVE",
"429 545 CURVE SMOOTH",
"429 648 OFFCURVE",
"354 726 OFFCURVE",
"252 726 CURVE SMOOTH",
"151 726 OFFCURVE",
"74 649 OFFCURVE",
"74 545 CURVE SMOOTH",
"74 438 OFFCURVE",
"154 369 OFFCURVE",
"251 369 CURVE SMOOTH"
);
},
{
closed = 1;
nodes = (
"184 417 OFFCURVE",
"139 471 OFFCURVE",
"139 541 CURVE SMOOTH",
"139 613 OFFCURVE",
"182 668 OFFCURVE",
"252 668 CURVE SMOOTH",
"322 668 OFFCURVE",
"364 613 OFFCURVE",
"364 541 CURVE SMOOTH",
"364 471 OFFCURVE",
"317 417 OFFCURVE",
"252 417 CURVE SMOOTH"
);
},
{
closed = 1;
nodes = (
"346 -160 OFFCURVE",
"429 -88 OFFCURVE",
"429 18 CURVE SMOOTH",
"429 120 OFFCURVE",
"354 197 OFFCURVE",
"252 197 CURVE SMOOTH",
"151 197 OFFCURVE",
"74 121 OFFCURVE",
"74 18 CURVE SMOOTH",
"74 -88 OFFCURVE",
"154 -160 OFFCURVE",
"251 -160 CURVE SMOOTH"
);
},
{
closed = 1;
nodes = (
"184 -105 OFFCURVE",
"139 -51 OFFCURVE",
"139 21 CURVE SMOOTH",
"139 97 OFFCURVE",
"182 149 OFFCURVE",
"252 149 CURVE SMOOTH",
"322 149 OFFCURVE",
"364 97 OFFCURVE",
"364 21 CURVE SMOOTH",
"364 -51 OFFCURVE",
"317 -105 OFFCURVE",
"252 -105 CURVE SMOOTH"
);
}
);
width = 570;
}
);
},
{
color = 3;
glyphname = ka;
lastChange = "2019-05-04 13:40:07 +0000";
layers = (
{
layerId = "8AD06237-24D7-4ED2-B5ED-9E3907A842BF";
paths = (
{
closed = 1;
nodes = (
"163 564 OFFCURVE",
"206 615 OFFCURVE",
"267 614 CURVE SMOOTH",
"330 613 OFFCURVE",
"365 564 OFFCURVE",
"365 502 CURVE SMOOTH",
"365 438 OFFCURVE",
"329 391 OFFCURVE",
"268 391 CURVE SMOOTH",
"218 391 OFFCURVE",
"163 425 OFFCURVE",
"163 501 CURVE SMOOTH"
);
},
{
closed = 1;
nodes = (
"462 -148 LINE",
"532 -148 LINE",
"532 269 LINE",
"462 269 LINE"
);
},
{
closed = 1;
nodes = (
"345 -148 LINE",
"646 -148 LINE",
"646 -87 LINE",
"345 -87 LINE"
);
},
{
closed = 1;
nodes = (
"728 240 OFFCURVE",
"893 345 OFFCURVE",
"893 493 CURVE SMOOTH",
"893 591 OFFCURVE",
"824 667 OFFCURVE",
"726 667 CURVE SMOOTH",
"633 667 OFFCURVE",
"566 593 OFFCURVE",
"566 503 CURVE SMOOTH",
"566 408 OFFCURVE",
"643 345 OFFCURVE",
"733 349 CURVE",
"736 340 LINE",
"691 310 OFFCURVE",
"596 286 OFFCURVE",
"496 286 CURVE SMOOTH",
"396 286 OFFCURVE",
"302 310 OFFCURVE",
"257 340 CURVE",
"260 349 LINE",
"350 345 OFFCURVE",
"427 408 OFFCURVE",
"427 503 CURVE SMOOTH",
"427 593 OFFCURVE",
"360 667 OFFCURVE",
"267 667 CURVE SMOOTH",
"169 667 OFFCURVE",
"100 591 OFFCURVE",
"100 493 CURVE SMOOTH",
"100 345 OFFCURVE",
"265 240 OFFCURVE",
"496 240 CURVE SMOOTH"
);
},
{
closed = 1;
nodes = (
"830 425 OFFCURVE",
"775 391 OFFCURVE",
"725 391 CURVE SMOOTH",
"664 391 OFFCURVE",
"628 438 OFFCURVE",
"628 502 CURVE SMOOTH",
"628 564 OFFCURVE",
"663 613 OFFCURVE",
"726 614 CURVE SMOOTH",
"787 615 OFFCURVE",
"830 564 OFFCURVE",
"830 501 CURVE SMOOTH"
);
}
);
width = 1102;
}
);
},
{
glyphname = go;
lastChange = "2019-06-28 14:46:58 +0000";
layers = (
{
layerId = "8AD06237-24D7-4ED2-B5ED-9E3907A842BF";
paths = (
{
closed = 1;
nodes = (
"755 -160 OFFCURVE",
"863 -104 OFFCURVE",
"863 85 CURVE SMOOTH",
"863 485 LINE",
"794 485 LINE",
"797 108 LINE SMOOTH",
"798 -31 OFFCURVE",
"752 -95 OFFCURVE",
"655 -95 CURVE SMOOTH",
"561 -95 OFFCURVE",
"514 -16 OFFCURVE",
"514 80 CURVE SMOOTH",
"518 715 LINE",
"449 715 LINE",
"449 77 LINE SMOOTH",
"449 -103 OFFCURVE",
"567 -160 OFFCURVE",
"655 -160 CURVE SMOOTH"
);
},
{
closed = 1;
nodes = (
"171 11 LINE",
"168 211 LINE SMOOTH",
"166 371 OFFCURVE",
"210 431 OFFCURVE",
"312 431 CURVE SMOOTH",
"393 431 OFFCURVE",
"452 361 OFFCURVE",
"465 216 CURVE",
"480 302 LINE",
"437 470 OFFCURVE",
"376 497 OFFCURVE",
"303 497 CURVE SMOOTH",
"199 497 OFFCURVE",
"102 432 OFFCURVE",
"102 244 CURVE SMOOTH",
"102 11 LINE"
);
}
);
width = 1026;
}
);
},
{
color = 3;
glyphname = gi;
lastChange = "2019-06-20 12:41:29 +0000";
layers = (
{
layerId = "8AD06237-24D7-4ED2-B5ED-9E3907A842BF";
paths = (
{
closed = 1;
nodes = (
"80 600 OFFCURVE",
"80 452 OFFCURVE",
"80 260 CURVE SMOOTH",
"80 81 OFFCURVE",
"184 -13 OFFCURVE",
"318 -13 CURVE SMOOTH",
"452 -13 OFFCURVE",
"548 81 OFFCURVE",
"548 260 CURVE SMOOTH",
"548 448 OFFCURVE",
"551 605 OFFCURVE",
"551 715 CURVE",
"481 715 LINE",
"481 616 OFFCURVE",
"483 454 OFFCURVE",
"483 267 CURVE SMOOTH",
"483 112 OFFCURVE",
"416 46 OFFCURVE",
"320 46 CURVE SMOOTH",
"221 46 OFFCURVE",
"146 121 OFFCURVE",
"146 267 CURVE SMOOTH",
"146 457 OFFCURVE",
"148 603 OFFCURVE",
"150 715 CURVE",
"80 715 LINE"
);
},
{
closed = 1;
nodes = (
"618 417 OFFCURVE",
"716 467 OFFCURVE",
"716 572 CURVE SMOOTH",
"716 657 OFFCURVE",
"640 715 OFFCURVE",
"546 715 CURVE",
"546 663 LINE",
"626 663 OFFCURVE",
"652 624 OFFCURVE",
"652 568 CURVE SMOOTH",
"652 500 OFFCURVE",
"602 470 OFFCURVE",
"530 470 CURVE",
"530 417 LINE"
);
},
{
closed = 1;
nodes = (
"213 417 OFFCURVE",
"311 467 OFFCURVE",
"311 572 CURVE SMOOTH",
"311 657 OFFCURVE",
"235 715 OFFCURVE",
"141 715 CURVE",
"141 663 LINE",
"221 663 OFFCURVE",
"247 624 OFFCURVE",
"247 568 CURVE SMOOTH",
"247 500 OFFCURVE",
"198 470 OFFCURVE",
"125 470 CURVE",
"125 417 LINE"
);
}
);
width = 756;
}
);
},
{
color = 3;
glyphname = ga;
lastChange = "2019-05-04 13:40:07 +0000";
layers = (
{
layerId = "8AD06237-24D7-4ED2-B5ED-9E3907A842BF";
paths = (
{
closed = 1;
nodes = (
"240 -160 OFFCURVE",
"289 -95 OFFCURVE",
"289 -12 CURVE",
"289 408 LINE",
"227 408 LINE",
"227 -10 LINE",
"227 -79 OFFCURVE",
"194 -104 OFFCURVE",
"154 -104 CURVE SMOOTH",
"110 -104 OFFCURVE",
"85 -75 OFFCURVE",
"85 -10 CURVE",
"28 -30 LINE",
"28 -114 OFFCURVE",
"95 -160 OFFCURVE",
"150 -160 CURVE SMOOTH"
);
},
{
closed = 1;
nodes = (
"352 369 OFFCURVE",
"435 437 OFFCURVE",
"435 545 CURVE SMOOTH",
"435 648 OFFCURVE",
"360 726 OFFCURVE",
"258 726 CURVE SMOOTH",
"157 726 OFFCURVE",
"80 649 OFFCURVE",
"80 545 CURVE SMOOTH",
"80 438 OFFCURVE",
"160 369 OFFCURVE",
"257 369 CURVE SMOOTH"
);
},
{
closed = 1;
nodes = (
"190 417 OFFCURVE",
"145 471 OFFCURVE",
"145 541 CURVE SMOOTH",
"145 613 OFFCURVE",
"188 668 OFFCURVE",
"258 668 CURVE SMOOTH",
"328 668 OFFCURVE",
"370 613 OFFCURVE",
"370 541 CURVE SMOOTH",
"370 471 OFFCURVE",
"323 417 OFFCURVE",
"258 417 CURVE SMOOTH"
);
}
);
width = 560;
}
);
},
{
color = 3;
glyphname = fo;
lastChange = "2019-05-04 13:40:07 +0000";
layers = (
{
layerId = "8AD06237-24D7-4ED2-B5ED-9E3907A842BF";
paths = (
{
closed = 1;
nodes = (
"80 0 LINE",
"150 0 LINE",
"150 484 LINE",
"80 484 LINE"
);
},
{
closed = 1;
nodes = (
"331 0 LINE",
"402 0 LINE",
"402 484 LINE",
"331 484 LINE"
);
},
{
closed = 1;
nodes = (
"584 0 LINE",
"650 0 LINE",
"650 484 LINE",
"584 484 LINE"
);
},
{
closed = 1;
nodes = (
"833 0 LINE",
"903 0 LINE",
"903 484 LINE",
"833 484 LINE"
);
},
{
closed = 1;
nodes = (
"82 0 LINE",
"903 0 LINE",
"903 58 LINE",
"82 58 LINE"
);
}
);
width = 983;
}
);
},
{
color = 3;
glyphname = fe;
lastChange = "2019-07-01 21:01:15 +0000";
layers = (
{
guideLines = (
{
angle = 90;
locked = 1;
position = "{589, 141}";
}
);
layerId = "8AD06237-24D7-4ED2-B5ED-9E3907A842BF";
paths = (
{
closed = 1;
nodes = (
"325 -12 OFFCURVE",
"392 56 OFFCURVE",
"392 172 CURVE SMOOTH",
"392 272 OFFCURVE",
"344 377 OFFCURVE",
"291 417 CURVE",
"305 430 OFFCURVE",
"365 445 OFFCURVE",
"416 445 CURVE SMOOTH",
"464 445 OFFCURVE",
"533 433 OFFCURVE",
"555 416 CURVE",
"504 379 OFFCURVE",
"440 275 OFFCURVE",
"440 166 CURVE SMOOTH",
"440 56 OFFCURVE",
"505 -12 OFFCURVE",
"596 -12 CURVE SMOOTH",
"681 -12 OFFCURVE",
"752 48 OFFCURVE",
"752 166 CURVE SMOOTH",
"752 250 OFFCURVE",
"716 368 OFFCURVE",
"644 413 CURVE",
"659 425 OFFCURVE",
"728 445 OFFCURVE",
"787 445 CURVE SMOOTH",
"837 445 OFFCURVE",
"901 431 OFFCURVE",
"920 416 CURVE",
"853 363 OFFCURVE",
"802 267 OFFCURVE",
"802 164 CURVE SMOOTH",
"802 34 OFFCURVE",
"882 -12 OFFCURVE",
"956 -12 CURVE SMOOTH",
"1033 -12 OFFCURVE",
"1114 39 OFFCURVE",
"1114 167 CURVE SMOOTH",
"1114 282 OFFCURVE",
"1049 386 OFFCURVE",
"984 421 CURVE",
"1020 434 OFFCURVE",
"1087 439 OFFCURVE",
"1159 426 CURVE",
"1159 484 LINE",
"1083 503 OFFCURVE",
"1004 489 OFFCURVE",
"959 447 CURVE",
"906 485 OFFCURVE",
"850 500 OFFCURVE",
"789 500 CURVE SMOOTH",
"717 500 OFFCURVE",
"646 479 OFFCURVE",
"597 447 CURVE",
"544 485 OFFCURVE",
"481 500 OFFCURVE",
"419 500 CURVE SMOOTH",
"346 500 OFFCURVE",
"281 478 OFFCURVE",
"235 447 CURVE",
"187 484 OFFCURVE",
"118 503 OFFCURVE",
"50 484 CURVE",
"50 425 LINE",
"104 431 OFFCURVE",
"172 428 OFFCURVE",
"205 411 CURVE",
"111 361 OFFCURVE",
"80 249 OFFCURVE",
"80 168 CURVE SMOOTH",
"80 34 OFFCURVE",
"162 -12 OFFCURVE",
"235 -12 CURVE SMOOTH"
);
},
{
closed = 1;
nodes = (
"185 51 OFFCURVE",
"154 102 OFFCURVE",
"154 179 CURVE SMOOTH",
"154 243 OFFCURVE",
"176 365 OFFCURVE",
"238 401 CURVE",
"293 369 OFFCURVE",
"315 241 OFFCURVE",
"315 175 CURVE SMOOTH",
"315 95 OFFCURVE",
"283 51 OFFCURVE",
"236 51 CURVE SMOOTH"
);
},
{
closed = 0;
nodes = (
"235 447 LINE"
);
},
{
closed = 1;
nodes = (
"549 51 OFFCURVE",
"517 91 OFFCURVE",
"517 183 CURVE SMOOTH",
"517 265 OFFCURVE",
"543 371 OFFCURVE",
"597 401 CURVE",
"658 366 OFFCURVE",
"678 243 OFFCURVE",
"678 180 CURVE SMOOTH",
"678 101 OFFCURVE",
"647 51 OFFCURVE",
"595 51 CURVE SMOOTH"
);
},
{
closed = 1;
nodes = (
"911 51 OFFCURVE",
"879 97 OFFCURVE",
"879 169 CURVE SMOOTH",
"879 239 OFFCURVE",
"909 369 OFFCURVE",
"953 398 CURVE",
"1015 362 OFFCURVE",
"1040 244 OFFCURVE",
"1040 177 CURVE SMOOTH",
"1040 103 OFFCURVE",
"1009 51 OFFCURVE",
"958 51 CURVE SMOOTH"
);
}
);
width = 1209;
}
);
},
{
color = 3;
glyphname = fa;
lastChange = "2019-05-07 21:12:09 +0000";
layers = (
{
guideLines = (
{
position = "{89, 140}";
}
);
layerId = "8AD06237-24D7-4ED2-B5ED-9E3907A842BF";
paths = (
{
closed = 1;
nodes = (
"107 169 LINE",
"265 517 LINE",
"267 517 LINE",
"372 280 LINE",
"594 280 LINE",
"698 517 LINE",
"698 517 LINE",
"854 184 LINE",
"921 184 LINE",
"738 569 LINE",
"661 570 LINE",
"554 330 LINE",
"414 330 LINE",
"304 570 LINE",
"224 570 LINE",
"40 169 LINE"
);
},
{
closed = 1;
nodes = (
"780 140 LINE",
"991 140 LINE",
"991 190 LINE",
"780 190 LINE"
);
}
);
width = 1031;
}
);
},
{
glyphname = do.no;
lastChange = "2019-07-01 20:37:05 +0000";
layers = (
{
layerId = "8AD06237-24D7-4ED2-B5ED-9E3907A842BF";
paths = (
{
closed = 1;
nodes = (
"207 0 LINE",
"293 261 LINE",
"316 378 LINE",
"305 378 LINE",
"330 258 LINE",
"390 80 LINE",
"393 80 LINE",
"403 79 LINE",
"460 79 LINE",
"518 236 LINE",
"542 353 LINE",
"525 353 LINE",
"557 239 LINE",
"621 96 LINE",
"624 96 LINE",
"624 95 LINE",
"681 95 LINE",
"772 315 LINE",
"759 315 LINE",
"840 123 LINE",
"905 123 LINE",
"806 349 LINE",
"723 349 LINE",
"667 207 LINE",
"647 128 LINE",
"657 128 LINE",
"637 210 LINE",
"566 373 LINE",
"503 373 LINE",
"441 219 LINE",
"422 107 LINE",
"432 107 LINE",
"408 218 LINE",
"347 404 LINE",
"274 404 LINE",
"187 147 LINE",
"167 16 LINE",
"170 16 LINE",
"170 484 LINE",
"100 484 LINE",
"100 0 LINE"
);
}
);
width = 1036;
}
);
},
{
color = 3;
glyphname = di;
lastChange = "2019-05-04 13:40:07 +0000";
layers = (
{
layerId = "8AD06237-24D7-4ED2-B5ED-9E3907A842BF";
paths = (
{
closed = 1;
nodes = (
"373 357 OFFCURVE",
"518 405 OFFCURVE",
"476 715 CURVE",
"406 715 LINE",
"447 439 OFFCURVE",
"339 400 OFFCURVE",
"180 400 CURVE",
"180 357 LINE"
);
},
{
closed = 1;
nodes = (
"457 -160 OFFCURVE",
"522 -82 OFFCURVE",
"522 4 CURVE",
"457 18 LINE",
"457 -49 OFFCURVE",
"412 -102 OFFCURVE",
"344 -102 CURVE SMOOTH",
"269 -102 OFFCURVE",
"231 -52 OFFCURVE",
"231 44 CURVE",
"231 715 LINE",
"161 715 LINE",
"161 21 LINE",
"161 -100 OFFCURVE",
"242 -160 OFFCURVE",
"339 -160 CURVE SMOOTH"
);
}
);
width = 600;
}
);
},
{
color = 3;
glyphname = de;
lastChange = "2019-05-23 00:26:30 +0000";
layers = (
{
layerId = "8AD06237-24D7-4ED2-B5ED-9E3907A842BF";
paths = (
{
closed = 1;
nodes = (
"94 274 LINE",
"94 69 OFFCURVE",
"202 -12 OFFCURVE",
"349 -12 CURVE SMOOTH",
"497 -12 OFFCURVE",
"603 69 OFFCURVE",
"603 274 CURVE",
"603 657 LINE",
"533 657 LINE",
"533 282 LINE",
"533 102 OFFCURVE",
"450 44 OFFCURVE",
"349 44 CURVE SMOOTH",
"245 44 OFFCURVE",
"164 112 OFFCURVE",
"164 282 CURVE",
"164 657 LINE",
"94 657 LINE"
);
},
{
closed = 1;
nodes = (
"155 387 LINE",
"349 259 LINE",
"542 387 LINE",
"542 449 LINE",
"349 329 LINE",
"155 449 LINE"
);
}
);
width = 774;
}
);
},
{
color = 3;
glyphname = da;
lastChange = "2019-07-01 20:38:43 +0000";
layers = (
{
layerId = "8AD06237-24D7-4ED2-B5ED-9E3907A842BF";
paths = (
{
closed = 1;
nodes = (
"345 369 OFFCURVE",
"417 437 OFFCURVE",
"417 545 CURVE SMOOTH",
"417 648 OFFCURVE",
"342 726 OFFCURVE",
"240 726 CURVE SMOOTH",
"139 726 OFFCURVE",
"62 649 OFFCURVE",
"62 545 CURVE SMOOTH",
"62 438 OFFCURVE",
"153 369 OFFCURVE",
"250 369 CURVE SMOOTH"
);
},
{
closed = 1;
nodes = (
"172 417 OFFCURVE",
"127 470 OFFCURVE",
"127 545 CURVE SMOOTH",
"127 619 OFFCURVE",
"170 677 OFFCURVE",
"240 677 CURVE SMOOTH",
"310 677 OFFCURVE",
"352 618 OFFCURVE",
"352 546 CURVE SMOOTH",
"352 469 OFFCURVE",
"305 417 OFFCURVE",
"239 417 CURVE SMOOTH"
);
},
{
closed = 1;
nodes = (
"217 305 LINE",
"108 282 OFFCURVE",
"36 233 OFFCURVE",
"36 174 CURVE SMOOTH",
"36 120 OFFCURVE",
"78 78 OFFCURVE",
"189 66 CURVE SMOOTH",
"217 63 LINE SMOOTH",
"328 51 OFFCURVE",
"347 35 OFFCURVE",
"347 11 CURVE SMOOTH",
"347 -14 OFFCURVE",
"332 -27 OFFCURVE",
"292 -36 CURVE SMOOTH",
"257 -44 LINE SMOOTH",
"177 -62 OFFCURVE",
"108 -91 OFFCURVE",
"108 -156 CURVE SMOOTH",
"108 -219 OFFCURVE",
"173 -248 OFFCURVE",
"271 -248 CURVE",
"271 -207 LINE",
"198 -207 OFFCURVE",
"169 -192 OFFCURVE",
"169 -158 CURVE SMOOTH",
"169 -130 OFFCURVE",
"189 -109 OFFCURVE",
"265 -92 CURVE SMOOTH",
"297 -85 LINE SMOOTH",
"368 -69 OFFCURVE",
"412 -33 OFFCURVE",
"412 16 CURVE SMOOTH",
"412 72 OFFCURVE",
"359 100 OFFCURVE",
"248 112 CURVE SMOOTH",
"193 118 LINE SMOOTH",
"130 125 OFFCURVE",
"101 145 OFFCURVE",
"101 174 CURVE SMOOTH",
"101 210 OFFCURVE",
"130 245 OFFCURVE",
"264 258 CURVE",
"264 383 LINE",
"217 383 LINE"
);
}
);
width = 455;
}
);
},
{
color = 3;
glyphname = bo;
lastChange = "2019-07-01 21:00:36 +0000";
layers = (
{
layerId = "8AD06237-24D7-4ED2-B5ED-9E3907A842BF";
paths = (
{
closed = 1;
nodes = (
"161 731 OFFCURVE",
"75 636 OFFCURVE",
"75 180 CURVE SMOOTH",
"75 60 OFFCURVE",
"112 0 OFFCURVE",
"171 0 CURVE SMOOTH",
"281 0 OFFCURVE",
"368 197 OFFCURVE",
"368 553 CURVE SMOOTH",
"368 684 OFFCURVE",
"336 731 OFFCURVE",
"271 731 CURVE SMOOTH"
);
},
{
closed = 1;
nodes = (
"298 692 OFFCURVE",
"312 641 OFFCURVE",
"312 575 CURVE SMOOTH",
"312 233 OFFCURVE",
"239 39 OFFCURVE",
"169 39 CURVE SMOOTH",
"145 39 OFFCURVE",
"133 55 OFFCURVE",
"133 178 CURVE SMOOTH",
"133 519 OFFCURVE",
"199 692 OFFCURVE",
"273 692 CURVE"
);
},
{
closed = 1;
nodes = (
"245 667 LINE",
"150 73 LINE",
"158 30 LINE",
"143 10 LINE",
"102 -250 LINE",
"144 -250 LINE",
"183 4 LINE",
"174 29 LINE",
"196 67 LINE",
"293 663 LINE",
"284 698 LINE",
"263 698 LINE"
);
}
);
width = 388;
}
);
},
{
color = 3;
glyphname = bi;
lastChange = "2019-07-01 15:57:22 +0000";
layers = (
{
layerId = "8AD06237-24D7-4ED2-B5ED-9E3907A842BF";
paths = (
{
closed = 1;
nodes = (
"937 0 LINE",
"937 58 LINE",
"555 657 LINE",
"480 657 LINE",
"77 58 LINE",
"77 0 LINE"
);
},
{
closed = 1;
nodes = (
"497 580 LINE",
"489 455 LINE",
"489 58 LINE",
"152 58 LINE"
);
},
{
closed = 1;
nodes = (
"548 455 LINE",
"540 580 LINE",
"867 58 LINE",
"548 58 LINE"
);
}
);
width = 1018;
}
);
},
{
color = 3;
glyphname = be;
lastChange = "2019-07-01 20:59:55 +0000";
layers = (
{
layerId = "8AD06237-24D7-4ED2-B5ED-9E3907A842BF";
paths = (
{
closed = 1;
nodes = (
"21 396 OFFCURVE",
"138 537 OFFCURVE",
"259 583 CURVE",
"213 608 OFFCURVE",
"136 616 OFFCURVE",
"46 616 CURVE",
"46 669 LINE",
"129 669 OFFCURVE",
"235 663 OFFCURVE",
"307 615 CURVE",
"381 676 OFFCURVE",
"531 735 OFFCURVE",
"731 707 CURVE",
"731 649 LINE",
"559 676 OFFCURVE",
"395 632 OFFCURVE",
"340 591 CURVE",
"421 532 OFFCURVE",
"503 406 OFFCURVE",
"503 251 CURVE SMOOTH",
"503 83 OFFCURVE",
"403 -13 OFFCURVE",
"257 -13 CURVE SMOOTH",
"117 -13 OFFCURVE",
"21 71 OFFCURVE",
"21 226 CURVE SMOOTH"
);
},
{
closed = 1;
nodes = (
"99 128 OFFCURVE",
"162 54 OFFCURVE",
"260 54 CURVE SMOOTH",
"362 54 OFFCURVE",
"425 138 OFFCURVE",
"425 259 CURVE SMOOTH",
"425 384 OFFCURVE",
"361 511 OFFCURVE",
"292 551 CURVE",
"202 506 OFFCURVE",
"99 383 OFFCURVE",
"99 242 CURVE SMOOTH"
);
},
{
closed = 1;
nodes = (
"304 225 OFFCURVE",
"330 252 OFFCURVE",
"330 287 CURVE SMOOTH",
"330 320 OFFCURVE",
"304 347 OFFCURVE",
"271 347 CURVE SMOOTH",
"238 347 OFFCURVE",
"212 320 OFFCURVE",
"212 287 CURVE SMOOTH",
"212 252 OFFCURVE",
"238 225 OFFCURVE",
"271 225 CURVE SMOOTH"
);
}
);
width = 511;
}
);
},
{
color = 3;
glyphname = ba;
lastChange = "2019-06-08 14:50:18 +0000";
layers = (
{
layerId = "8AD06237-24D7-4ED2-B5ED-9E3907A842BF";
paths = (
{
closed = 1;
nodes = (
"100 259 LINE",
"100 81 OFFCURVE",
"207 -13 OFFCURVE",
"340 -13 CURVE SMOOTH",
"475 -13 OFFCURVE",
"572 81 OFFCURVE",
"572 259 CURVE",
"572 475 LINE",
"504 475 LINE",
"504 267 LINE",
"504 112 OFFCURVE",
"429 46 OFFCURVE",
"343 46 CURVE SMOOTH",
"254 46 OFFCURVE",
"168 121 OFFCURVE",
"168 267 CURVE",
"168 475 LINE",
"100 475 LINE"
);
},
{
closed = 1;
nodes = (
"103 432 LINE",
"571 432 LINE",
"571 484 LINE",
"103 484 LINE"
);
},
{
closed = 1;
nodes = (
"170 467 LINE",
"231 467 LINE",
"313 715 LINE",
"252 715 LINE"
);
},
{
closed = 1;
nodes = (
"413 467 LINE",
"473 467 LINE",
"556 715 LINE",
"495 715 LINE"
);
}
);
width = 774;
}
);
},
{
color = 3;
glyphname = tja;
lastChange = "2019-05-04 19:40:52 +0000";
layers = (
{
layerId = "8AD06237-24D7-4ED2-B5ED-9E3907A842BF";
paths = (
{
closed = 1;
nodes = (
"247 455 LINE",
"316 455 LINE",
"314 715 LINE",
"245 715 LINE"
);
},
{
closed = 1;
nodes = (
"245 -148 LINE",
"314 -148 LINE",
"316 178 LINE",
"247 178 LINE"
);
},
{
closed = 1;
nodes = (
"375 139 OFFCURVE",
"455 208 OFFCURVE",
"455 315 CURVE SMOOTH",
"455 418 OFFCURVE",
"379 496 OFFCURVE",
"277 496 CURVE SMOOTH",
"176 496 OFFCURVE",
"100 419 OFFCURVE",
"100 315 CURVE SMOOTH",
"100 208 OFFCURVE",
"183 139 OFFCURVE",
"280 139 CURVE SMOOTH"
);
},
{
closed = 1;
nodes = (
"212 187 OFFCURVE",
"165 235 OFFCURVE",
"165 315 CURVE SMOOTH",
"165 391 OFFCURVE",
"207 447 OFFCURVE",
"277 447 CURVE SMOOTH",
"347 447 OFFCURVE",
"390 391 OFFCURVE",
"390 315 CURVE SMOOTH",
"390 235 OFFCURVE",
"345 187 OFFCURVE",
"280 187 CURVE SMOOTH"
);
}
);
width = 600;
}
);
},
{
color = 3;
glyphname = ju;
lastChange = "2019-06-28 14:48:33 +0000";
layers = (
{
layerId = "8AD06237-24D7-4ED2-B5ED-9E3907A842BF";
paths = (
{
closed = 1;
nodes = (
"329 0 LINE",
"399 0 LINE",
"399 709 LINE",
"329 709 LINE"
);
},
{
closed = 1;
nodes = (
"506 677 OFFCURVE",
"610 596 OFFCURVE",
"610 366 CURVE",
"668 366 LINE",
"668 633 OFFCURVE",
"537 726 OFFCURVE",
"364 726 CURVE SMOOTH",
"191 726 OFFCURVE",
"60 633 OFFCURVE",
"60 366 CURVE",
"119 366 LINE",
"119 596 OFFCURVE",
"226 677 OFFCURVE",
"365 677 CURVE SMOOTH"
);
}
);
width = 855;
}
);
},
{
color = 3;
glyphname = te;
lastChange = "2019-05-04 13:40:07 +0000";
layers = (
{
layerId = "8AD06237-24D7-4ED2-B5ED-9E3907A842BF";
paths = (
{
closed = 1;
nodes = (
"462 -160 OFFCURVE",
"528 -77 OFFCURVE",
"528 14 CURVE",
"465 28 LINE",
"465 -43 OFFCURVE",
"424 -97 OFFCURVE",
"366 -97 CURVE SMOOTH",
"294 -97 OFFCURVE",
"268 -54 OFFCURVE",
"268 20 CURVE",
"268 667 LINE",
"200 667 LINE",
"200 17 LINE",
"200 -77 OFFCURVE",
"254 -160 OFFCURVE",
"356 -160 CURVE SMOOTH"
);
},
{
closed = 1;
nodes = (
"87 657 LINE",
"406 657 LINE",
"406 714 LINE",
"87 714 LINE"
);
}
);
width = 578;
}
);
},
{
glyphname = te.ss01;
lastChange = "2019-05-04 14:32:08 +0000";
layers = (
{
layerId = "8AD06237-24D7-4ED2-B5ED-9E3907A842BF";
paths = (
{
closed = 1;
nodes = (
"51 222 OFFCURVE",
"134 156 OFFCURVE",
"225 156 CURVE",
"239 219 LINE",
"168 219 OFFCURVE",
"114 260 OFFCURVE",
"114 318 CURVE SMOOTH",
"114 390 OFFCURVE",
"157 416 OFFCURVE",
"231 416 CURVE",
"878 416 LINE",
"878 484 LINE",
"228 484 LINE",
"134 484 OFFCURVE",
"51 430 OFFCURVE",
"51 328 CURVE SMOOTH"
);
},
{
closed = 1;
nodes = (
"868 597 LINE",
"868 278 LINE",
"925 278 LINE",
"925 597 LINE"
);
}
);
width = 1050;
}
);
},
{
color = 3;
glyphname = we;
lastChange = "2019-05-04 13:40:07 +0000";
layers = (
{
guideLines = (
{
position = "{812, 163}";
}
);
layerId = "8AD06237-24D7-4ED2-B5ED-9E3907A842BF";
paths = (
{
closed = 1;
nodes = (
"137 376 OFFCURVE",
"190 440 OFFCURVE",
"265 439 CURVE SMOOTH",
"343 438 OFFCURVE",
"387 376 OFFCURVE",
"387 300 CURVE SMOOTH",
"387 221 OFFCURVE",
"342 161 OFFCURVE",
"266 161 CURVE SMOOTH",
"205 161 OFFCURVE",
"137 204 OFFCURVE",
"137 299 CURVE SMOOTH"
);
},
{
closed = 1;
nodes = (
"815 -12 OFFCURVE",
"1011 113 OFFCURVE",
"1011 289 CURVE SMOOTH",
"1011 405 OFFCURVE",
"929 496 OFFCURVE",
"812 496 CURVE SMOOTH",
"701 496 OFFCURVE",
"622 408 OFFCURVE",
"622 302 CURVE SMOOTH",
"622 188 OFFCURVE",
"713 113 OFFCURVE",
"821 117 CURVE",
"824 107 LINE",
"771 71 OFFCURVE",
"658 42 OFFCURVE",
"538 42 CURVE SMOOTH",
"418 42 OFFCURVE",
"307 71 OFFCURVE",
"253 107 CURVE",
"257 117 LINE",
"365 113 OFFCURVE",
"456 188 OFFCURVE",
"456 302 CURVE SMOOTH",
"456 408 OFFCURVE",
"376 496 OFFCURVE",
"265 496 CURVE SMOOTH",
"149 496 OFFCURVE",
"66 405 OFFCURVE",
"66 289 CURVE SMOOTH",
"66 113 OFFCURVE",
"263 -12 OFFCURVE",
"538 -12 CURVE SMOOTH"
);
},
{
closed = 1;
nodes = (
"940 205 OFFCURVE",
"873 163 OFFCURVE",
"811 163 CURVE SMOOTH",
"735 163 OFFCURVE",
"691 221 OFFCURVE",
"691 300 CURVE SMOOTH",
"691 375 OFFCURVE",
"733 436 OFFCURVE",
"812 437 CURVE SMOOTH",
"888 438 OFFCURVE",
"940 375 OFFCURVE",
"940 299 CURVE SMOOTH"
);
}
);
width = 1102;
}
);
},
{
glyphname = ka.alt1;
lastChange = "2019-05-04 14:32:08 +0000";
layers = (
{
layerId = "8AD06237-24D7-4ED2-B5ED-9E3907A842BF";
paths = (
{
closed = 1;
nodes = (
"163 564 OFFCURVE",
"206 615 OFFCURVE",
"267 614 CURVE SMOOTH",
"330 613 OFFCURVE",
"365 564 OFFCURVE",
"365 502 CURVE SMOOTH",
"365 438 OFFCURVE",
"329 391 OFFCURVE",
"268 391 CURVE SMOOTH",
"218 391 OFFCURVE",
"163 425 OFFCURVE",
"163 501 CURVE SMOOTH"
);
},
{
closed = 1;
nodes = (
"462 0 LINE",
"532 0 LINE",
"532 269 LINE",
"462 269 LINE"
);
},
{
closed = 1;
nodes = (
"345 0 LINE",
"646 0 LINE",
"646 61 LINE",
"345 61 LINE"
);
},
{
closed = 1;
nodes = (
"728 240 OFFCURVE",
"893 345 OFFCURVE",
"893 493 CURVE SMOOTH",
"893 591 OFFCURVE",
"824 667 OFFCURVE",
"726 667 CURVE SMOOTH",
"633 667 OFFCURVE",
"566 593 OFFCURVE",
"566 503 CURVE SMOOTH",
"566 408 OFFCURVE",
"643 345 OFFCURVE",
"733 349 CURVE",
"736 340 LINE",
"691 310 OFFCURVE",
"596 286 OFFCURVE",
"496 286 CURVE SMOOTH",
"396 286 OFFCURVE",
"302 310 OFFCURVE",
"257 340 CURVE",
"260 349 LINE",
"350 345 OFFCURVE",
"427 408 OFFCURVE",
"427 503 CURVE SMOOTH",
"427 593 OFFCURVE",
"360 667 OFFCURVE",
"267 667 CURVE SMOOTH",
"169 667 OFFCURVE",
"100 591 OFFCURVE",
"100 493 CURVE SMOOTH",
"100 345 OFFCURVE",
"265 240 OFFCURVE",
"496 240 CURVE SMOOTH"
);
},
{
closed = 1;
nodes = (
"830 425 OFFCURVE",
"775 391 OFFCURVE",
"725 391 CURVE SMOOTH",
"664 391 OFFCURVE",
"628 438 OFFCURVE",
"628 502 CURVE SMOOTH",
"628 564 OFFCURVE",
"663 613 OFFCURVE",
"726 614 CURVE SMOOTH",
"787 615 OFFCURVE",
"830 564 OFFCURVE",
"830 501 CURVE SMOOTH"
);
}
);
width = 1102;
}
);
},
{
color = 3;
glyphname = si;
lastChange = "2019-06-08 14:23:32 +0000";
layers = (
{
layerId = "8AD06237-24D7-4ED2-B5ED-9E3907A842BF";
paths = (
{
closed = 1;
nodes = (
"209 669 OFFCURVE",
"108 551 OFFCURVE",
"108 313 CURVE SMOOTH",
"108 284 OFFCURVE",
"109 254 OFFCURVE",
"111 221 CURVE",
"177 221 LINE",
"175 250 OFFCURVE",
"174 279 OFFCURVE",
"174 304 CURVE SMOOTH",
"174 523 OFFCURVE",
"246 610 OFFCURVE",
"372 610 CURVE SMOOTH",
"494 610 OFFCURVE",
"565 520 OFFCURVE",
"565 294 CURVE SMOOTH",
"565 272 OFFCURVE",
"564 246 OFFCURVE",
"564 221 CURVE",
"629 221 LINE",
"633 252 OFFCURVE",
"633 281 OFFCURVE",
"633 309 CURVE SMOOTH",
"633 549 OFFCURVE",
"539 669 OFFCURVE",
"378 669 CURVE SMOOTH"
);
},
{
closed = 1;
nodes = (
"768 -12 OFFCURVE",
"858 106 OFFCURVE",
"858 344 CURVE SMOOTH",
"858 373 OFFCURVE",
"857 407 OFFCURVE",
"853 441 CURVE",
"788 441 LINE",
"790 410 OFFCURVE",
"791 378 OFFCURVE",
"791 351 CURVE SMOOTH",
"791 133 OFFCURVE",
"726 46 OFFCURVE",
"600 46 CURVE SMOOTH",
"478 46 OFFCURVE",
"400 136 OFFCURVE",
"400 362 CURVE SMOOTH",
"400 385 OFFCURVE",
"400 413 OFFCURVE",
"401 441 CURVE",
"336 441 LINE",
"333 409 OFFCURVE",
"332 375 OFFCURVE",
"332 347 CURVE SMOOTH",
"332 108 OFFCURVE",
"438 -12 OFFCURVE",
"598 -12 CURVE SMOOTH"
);
}
);
width = 966;
}
);
},
{
glyphname = de.alt;
lastChange = "2019-05-04 14:32:08 +0000";
layers = (
{
layerId = "8AD06237-24D7-4ED2-B5ED-9E3907A842BF";
paths = (
{
closed = 1;
nodes = (
"94 274 LINE",
"94 69 OFFCURVE",
"202 -12 OFFCURVE",
"349 -12 CURVE SMOOTH",
"497 -12 OFFCURVE",
"603 69 OFFCURVE",
"603 274 CURVE",
"603 657 LINE",
"533 657 LINE",
"533 282 LINE",
"533 102 OFFCURVE",
"450 48 OFFCURVE",
"349 48 CURVE SMOOTH",
"245 48 OFFCURVE",
"164 112 OFFCURVE",
"164 282 CURVE",
"164 657 LINE",
"94 657 LINE"
);
},
{
closed = 1;
nodes = (
"349 426 LINE",
"542 306 LINE",
"542 368 LINE",
"349 496 LINE",
"155 368 LINE",
"155 306 LINE"
);
}
);
width = 774;
}
);
},
{
glyphname = go.alt;
lastChange = "2019-05-04 14:32:08 +0000";
layers = (
{
layerId = "8AD06237-24D7-4ED2-B5ED-9E3907A842BF";
paths = (
{
closed = 1;
nodes = (
"168 0 LINE",
"168 212 LINE SMOOTH",
"168 343 OFFCURVE",
"217 411 OFFCURVE",
"305 411 CURVE SMOOTH",
"390 411 OFFCURVE",
"432 347 OFFCURVE",
"432 213 CURVE",
"432 81 OFFCURVE",
"505 -12 OFFCURVE",
"631 -12 CURVE SMOOTH",
"753 -12 OFFCURVE",
"847 59 OFFCURVE",
"847 239 CURVE SMOOTH",
"847 484 LINE",
"779 484 LINE",
"779 246 LINE SMOOTH",
"779 97 OFFCURVE",
"727 39 OFFCURVE",
"644 39 CURVE SMOOTH",
"555 39 OFFCURVE",
"499 101 OFFCURVE",
"499 253 CURVE",
"499 401 OFFCURVE",
"422 463 OFFCURVE",
"310 463 CURVE SMOOTH",
"177 463 OFFCURVE",
"100 365 OFFCURVE",
"100 237 CURVE SMOOTH",
"100 0 LINE"
);
},
{
closed = 1;
nodes = (
"277 419 LINE",
"343 419 LINE",
"343 715 LINE",
"277 715 LINE"
);
}
);
width = 1024;
}
);
},
{
color = 3;
glyphname = ti;
lastChange = "2019-06-08 14:49:01 +0000";
layers = (
{
layerId = "8AD06237-24D7-4ED2-B5ED-9E3907A842BF";
paths = (
{
closed = 1;
nodes = (
"489 762 OFFCURVE",
"561 667 OFFCURVE",
"561 569 CURVE SMOOTH",
"561 486 OFFCURVE",
"526 372 OFFCURVE",
"429 299 CURVE",
"390 336 LINE",
"461 387 OFFCURVE",
"494 483 OFFCURVE",
"494 557 CURVE SMOOTH",
"494 642 OFFCURVE",
"448 706 OFFCURVE",
"368 706 CURVE SMOOTH",
"296 706 OFFCURVE",
"250 647 OFFCURVE",
"250 569 CURVE SMOOTH",
"250 521 OFFCURVE",
"270 458 OFFCURVE",
"357 378 CURVE",
"385 350 LINE SMOOTH",
"471 268 OFFCURVE",
"512 183 OFFCURVE",
"512 81 CURVE SMOOTH",
"512 -58 OFFCURVE",
"415 -160 OFFCURVE",
"287 -160 CURVE SMOOTH",
"154 -160 OFFCURVE",
"65 -59 OFFCURVE",
"65 73 CURVE SMOOTH",
"65 213 OFFCURVE",
"152 337 OFFCURVE",
"318 393 CURVE",
"350 356 LINE",
"205 292 OFFCURVE",
"135 200 OFFCURVE",
"135 81 CURVE",
"135 -31 OFFCURVE",
"207 -101 OFFCURVE",
"289 -101 CURVE SMOOTH",
"384 -101 OFFCURVE",
"445 -30 OFFCURVE",
"445 84 CURVE SMOOTH",
"445 164 OFFCURVE",
"412 245 OFFCURVE",
"343 308 CURVE",
"303 343 LINE SMOOTH",
"227 411 OFFCURVE",
"181 493 OFFCURVE",
"181 564 CURVE SMOOTH",
"181 677 OFFCURVE",
"261 762 OFFCURVE",
"373 762 CURVE"
);
}
);
width = 727;
}
);
},
{
color = 3;
glyphname = ta;
lastChange = "2019-06-28 14:01:07 +0000";
layers = (
{
annotations = (
{
position = "{490.978, 332.104}";
type = Text;
}
);
layerId = "8AD06237-24D7-4ED2-B5ED-9E3907A842BF";
paths = (
{
closed = 1;
nodes = (
"211 731 OFFCURVE",
"85 456 OFFCURVE",
"85 0 CURVE SMOOTH",
"85 -120 OFFCURVE",
"128 -161 OFFCURVE",
"187 -161 CURVE SMOOTH",
"297 -161 OFFCURVE",
"413 148 OFFCURVE",
"413 542 CURVE SMOOTH",
"413 673 OFFCURVE",
"381 731 OFFCURVE",
"321 731 CURVE SMOOTH"
);
},
{
closed = 1;
nodes = (
"337 665 OFFCURVE",
"350 618 OFFCURVE",
"350 555 CURVE SMOOTH",
"350 235 OFFCURVE",
"246 -95 OFFCURVE",
"181 -95 CURVE SMOOTH",
"168 -95 OFFCURVE",
"150 -84 OFFCURVE",
"150 27 CURVE SMOOTH",
"150 319 OFFCURVE",
"244 665 OFFCURVE",
"313 665 CURVE"
);
}
);
width = 600;
}
);
},
{
glyphname = do.alt1;
lastChange = "2019-05-14 11:10:21 +0000";
layers = (
{
layerId = "8AD06237-24D7-4ED2-B5ED-9E3907A842BF";
paths = (
{
closed = 1;
nodes = (
"197 0 LINE",
"326 438 LINE",
"295 438 LINE",
"400 69 LINE",
"488 69 LINE",
"589 437 LINE",
"554 437 LINE",
"663 70 LINE",
"745 70 LINE",
"841 434 LINE",
"814 434 LINE",
"900 70 LINE",
"959 70 LINE",
"866 444 LINE",
"783 444 LINE",
"694 103 LINE",
"714 103 LINE",
"613 444 LINE",
"528 444 LINE",
"434 97 LINE",
"454 97 LINE",
"357 444 LINE",
"264 444 LINE",
"181 147 LINE",
"167 16 LINE",
"170 16 LINE",
"170 484 LINE",
"100 484 LINE",
"100 0 LINE"
);
}
);
width = 1025;
}
);
},
{
glyphname = do.alt2;
lastChange = "2019-05-14 12:33:49 +0000";
layers = (
{
layerId = "8AD06237-24D7-4ED2-B5ED-9E3907A842BF";
paths = (
{
closed = 1;
nodes = (
"436 363 LINE",
"436 417 OFFCURVE",
"417 442 OFFCURVE",
"387 442 CURVE SMOOTH",
"359 442 OFFCURVE",
"337 417 OFFCURVE",
"337 363 CURVE",
"337 115 LINE",
"337 41 OFFCURVE",
"281 -12 OFFCURVE",
"223 -12 CURVE SMOOTH",
"133 -12 OFFCURVE",
"100 41 OFFCURVE",
"100 115 CURVE",
"100 327 LINE",
"167 327 LINE",
"167 121 LINE",
"167 67 OFFCURVE",
"187 42 OFFCURVE",
"223 42 CURVE SMOOTH",
"249 42 OFFCURVE",
"270 67 OFFCURVE",
"270 121 CURVE",
"270 369 LINE",
"270 452 OFFCURVE",
"319 496 OFFCURVE",
"387 496 CURVE SMOOTH",
"463 496 OFFCURVE",
"503 443 OFFCURVE",
"503 369 CURVE",
"503 121 LINE",
"503 67 OFFCURVE",
"526 42 OFFCURVE",
"557 42 CURVE SMOOTH",
"583 42 OFFCURVE",
"602 67 OFFCURVE",
"602 121 CURVE",
"602 369 LINE",
"602 455 OFFCURVE",
"658 496 OFFCURVE",
"716 496 CURVE SMOOTH",
"803 496 OFFCURVE",
"839 443 OFFCURVE",
"839 369 CURVE",
"839 113 LINE",
"772 113 LINE",
"772 363 LINE",
"772 417 OFFCURVE",
"752 432 OFFCURVE",
"716 432 CURVE SMOOTH",
"690 432 OFFCURVE",
"669 417 OFFCURVE",
"669 363 CURVE",
"669 115 LINE",
"669 32 OFFCURVE",
"620 -12 OFFCURVE",
"552 -12 CURVE SMOOTH",
"476 -12 OFFCURVE",
"436 41 OFFCURVE",
"436 115 CURVE"
);
}
);
width = 954;
}
);
},
{
glyphname = do.alt3;
lastChange = "2019-05-14 11:44:12 +0000";
layers = (
{
layerId = "8AD06237-24D7-4ED2-B5ED-9E3907A842BF";
paths = (
{
closed = 1;
nodes = (
"907 211 LINE",
"907 157 OFFCURVE",
"885 142 OFFCURVE",
"869 142 CURVE SMOOTH",
"843 142 OFFCURVE",
"824 157 OFFCURVE",
"824 211 CURVE SMOOTH",
"824 257 LINE",
"824 331 OFFCURVE",
"788 384 OFFCURVE",
"708 384 CURVE SMOOTH",
"650 384 OFFCURVE",
"591 343 OFFCURVE",
"591 257 CURVE",
"591 181 LINE",
"591 127 OFFCURVE",
"572 102 OFFCURVE",
"546 102 CURVE SMOOTH",
"515 102 OFFCURVE",
"492 127 OFFCURVE",
"492 181 CURVE",
"492 299 LINE",
"492 373 OFFCURVE",
"449 426 OFFCURVE",
"373 426 CURVE SMOOTH",
"305 426 OFFCURVE",
"253 382 OFFCURVE",
"253 299 CURVE",
"253 115 LINE",
"253 61 OFFCURVE",
"241 42 OFFCURVE",
"213 42 CURVE SMOOTH",
"184 42 OFFCURVE",
"170 61 OFFCURVE",
"170 115 CURVE",
"170 484 LINE",
"100 484 LINE",
"100 115 LINE",
"100 41 OFFCURVE",
"126 -12 OFFCURVE",
"216 -12 CURVE SMOOTH",
"287 -12 OFFCURVE",
"323 41 OFFCURVE",
"323 115 CURVE",
"323 293 LINE",
"323 347 OFFCURVE",
"345 372 OFFCURVE",
"373 372 CURVE SMOOTH",
"403 372 OFFCURVE",
"422 347 OFFCURVE",
"422 293 CURVE",
"422 175 LINE",
"422 101 OFFCURVE",
"465 48 OFFCURVE",
"541 48 CURVE SMOOTH",
"609 48 OFFCURVE",
"661 92 OFFCURVE",
"661 175 CURVE",
"661 251 LINE",
"661 305 OFFCURVE",
"682 320 OFFCURVE",
"708 320 CURVE SMOOTH",
"734 320 OFFCURVE",
"754 305 OFFCURVE",
"754 251 CURVE",
"754 205 LINE SMOOTH",
"754 131 OFFCURVE",
"798 78 OFFCURVE",
"870 78 CURVE SMOOTH",
"932 78 OFFCURVE",
"980 123 OFFCURVE",
"980 205 CURVE",
"980 314 LINE",
"907 314 LINE"
);
}
);
width = 1080;
}
);
},
{
color = 3;
glyphname = do;
lastChange = "2019-07-01 20:37:11 +0000";
layers = (
{
layerId = "8AD06237-24D7-4ED2-B5ED-9E3907A842BF";
paths = (
{
closed = 1;
nodes = (
"989 187 LINE SMOOTH",
"973 72 OFFCURVE",
"924 45 OFFCURVE",
"886 45 CURVE SMOOTH",
"837 45 OFFCURVE",
"800 83 OFFCURVE",
"781 181 CURVE",
"768 249 LINE SMOOTH",
"752 332 OFFCURVE",
"738 343 OFFCURVE",
"724 343 CURVE SMOOTH",
"705 343 OFFCURVE",
"693 321 OFFCURVE",
"682 242 CURVE",
"669 169 LINE SMOOTH",
"648 52 OFFCURVE",
"615 35 OFFCURVE",
"569 35 CURVE SMOOTH",
"516 35 OFFCURVE",
"478 70 OFFCURVE",
"461 158 CURVE",
"431 303 LINE SMOOTH",
"423 340 OFFCURVE",
"417 374 OFFCURVE",
"395 374 CURVE SMOOTH",
"381 374 OFFCURVE",
"372 361 OFFCURVE",
"361 302 CURVE",
"350 245 OFFCURVE",
"332 154 OFFCURVE",
"326 125 CURVE SMOOTH",
"303 13 OFFCURVE",
"268 -12 OFFCURVE",
"224 -12 CURVE SMOOTH",
"161 -12 OFFCURVE",
"129 36 OFFCURVE",
"118 189 CURVE",
"100 484 LINE",
"168 484 LINE",
"189 148 LINE",
"195 72 OFFCURVE",
"205 45 OFFCURVE",
"219 45 CURVE SMOOTH",
"231 45 OFFCURVE",
"245 57 OFFCURVE",
"257 114 CURVE",
"291 284 LINE SMOOTH",
"315 405 OFFCURVE",
"346 431 OFFCURVE",
"397 431 CURVE SMOOTH",
"445 431 OFFCURVE",
"472 408 OFFCURVE",
"493 316 CURVE",
"517 206 LINE SMOOTH",
"538 109 OFFCURVE",
"553 93 OFFCURVE",
"569 93 CURVE",
"579 93 OFFCURVE",
"595 105 OFFCURVE",
"606 172 CURVE",
"619 249 LINE",
"634 359 OFFCURVE",
"670 396 OFFCURVE",
"725 396 CURVE SMOOTH",
"778 396 OFFCURVE",
"807 361 OFFCURVE",
"821 302 CURVE",
"849 164 LINE SMOOTH",
"858 119 OFFCURVE",
"869 101 OFFCURVE",
"886 101 CURVE SMOOTH",
"898 101 OFFCURVE",
"909 115 OFFCURVE",
"920 175 CURVE",
"935 280 LINE",
"1002 281 LINE"
);
}
);
width = 1116;
}
);
},
{
glyphname = do.alt5;
lastChange = "2019-05-14 12:31:10 +0000";
layers = (
{
layerId = "8AD06237-24D7-4ED2-B5ED-9E3907A842BF";
paths = (
{
closed = 1;
nodes = (
"953 114 LINE",
"945 67 OFFCURVE",
"940 46 OFFCURVE",
"920 46 CURVE SMOOTH",
"904 46 OFFCURVE",
"892 62 OFFCURVE",
"876 159 CURVE SMOOTH",
"843 361 LINE",
"831 453 OFFCURVE",
"794 496 OFFCURVE",
"740 496 CURVE SMOOTH",
"689 496 OFFCURVE",
"654 471 OFFCURVE",
"636 349 CURVE SMOOTH",
"602 114 LINE",
"594 67 OFFCURVE",
"589 46 OFFCURVE",
"569 46 CURVE SMOOTH",
"552 46 OFFCURVE",
"538 61 OFFCURVE",
"525 159 CURVE SMOOTH",
"498 361 LINE",
"486 453 OFFCURVE",
"452 496 OFFCURVE",
"398 496 CURVE SMOOTH",
"347 496 OFFCURVE",
"309 471 OFFCURVE",
"291 349 CURVE SMOOTH",
"257 114 LINE",
"245 57 OFFCURVE",
"231 45 OFFCURVE",
"219 45 CURVE SMOOTH",
"205 45 OFFCURVE",
"195 72 OFFCURVE",
"189 148 CURVE",
"168 484 LINE",
"100 484 LINE",
"118 189 LINE",
"129 36 OFFCURVE",
"161 -12 OFFCURVE",
"224 -12 CURVE SMOOTH",
"268 -12 OFFCURVE",
"303 13 OFFCURVE",
"326 125 CURVE SMOOTH",
"332 154 OFFCURVE",
"350 299 OFFCURVE",
"361 367 CURVE SMOOTH",
"367 405 OFFCURVE",
"374 439 OFFCURVE",
"396 439 CURVE SMOOTH",
"418 439 OFFCURVE",
"427 405 OFFCURVE",
"431 368 CURVE SMOOTH",
"461 111 LINE",
"478 23 OFFCURVE",
"516 -12 OFFCURVE",
"569 -12 CURVE SMOOTH",
"613 -12 OFFCURVE",
"648 13 OFFCURVE",
"671 125 CURVE SMOOTH",
"677 154 OFFCURVE",
"695 299 OFFCURVE",
"706 367 CURVE SMOOTH",
"712 405 OFFCURVE",
"719 439 OFFCURVE",
"741 439 CURVE SMOOTH",
"763 439 OFFCURVE",
"771 405 OFFCURVE",
"776 368 CURVE SMOOTH",
"812 111 LINE",
"829 23 OFFCURVE",
"867 -12 OFFCURVE",
"920 -12 CURVE SMOOTH",
"963 -12 OFFCURVE",
"999 13 OFFCURVE",
"1010 72 CURVE",
"1056 349 LINE",
"987 349 LINE"
);
}
);
width = 1202;
}
);
},
{
glyphname = si.alt;
lastChange = "2019-06-08 14:27:43 +0000";
layers = (
{
layerId = "8AD06237-24D7-4ED2-B5ED-9E3907A842BF";
paths = (
{
closed = 1;
nodes = (
"439 669 OFFCURVE",
"342 551 OFFCURVE",
"342 313 CURVE SMOOTH",
"342 284 OFFCURVE",
"343 254 OFFCURVE",
"345 221 CURVE",
"411 221 LINE",
"409 250 OFFCURVE",
"408 279 OFFCURVE",
"408 304 CURVE SMOOTH",
"408 523 OFFCURVE",
"480 610 OFFCURVE",
"606 610 CURVE SMOOTH",
"728 610 OFFCURVE",
"799 520 OFFCURVE",
"799 294 CURVE SMOOTH",
"799 272 OFFCURVE",
"798 246 OFFCURVE",
"798 221 CURVE",
"863 221 LINE",
"867 252 OFFCURVE",
"867 281 OFFCURVE",
"867 309 CURVE SMOOTH",
"867 549 OFFCURVE",
"769 669 OFFCURVE",
"608 669 CURVE SMOOTH"
);
},
{
closed = 1;
nodes = (
"544 -12 OFFCURVE",
"634 106 OFFCURVE",
"634 344 CURVE SMOOTH",
"634 373 OFFCURVE",
"633 407 OFFCURVE",
"629 441 CURVE",
"564 441 LINE",
"566 410 OFFCURVE",
"567 378 OFFCURVE",
"567 351 CURVE SMOOTH",
"567 133 OFFCURVE",
"502 46 OFFCURVE",
"376 46 CURVE SMOOTH",
"254 46 OFFCURVE",
"176 136 OFFCURVE",
"176 362 CURVE SMOOTH",
"176 385 OFFCURVE",
"176 413 OFFCURVE",
"177 441 CURVE",
"112 441 LINE",
"109 409 OFFCURVE",
"108 375 OFFCURVE",
"108 347 CURVE SMOOTH",
"108 108 OFFCURVE",
"214 -12 OFFCURVE",
"374 -12 CURVE SMOOTH"
);
}
